<?xml version="1.0" encoding="UTF-8"?>
<svg version="1.1" xmlns="http://www.w3.org/2000/svg" width="525" height="374">
<path d="M0 0 C173.25 0 346.5 0 525 0 C525 123.42 525 246.84 525 374 C351.75 374 178.5 374 0 374 C0 250.58 0 127.16 0 0 Z " fill="#F3FBF8" transform="translate(0,0)"/>
<path d="M0 0 C2.75 2.4375 2.75 2.4375 5 5 C5.53625 5.5775 6.0725 6.155 6.625 6.75 C10.57814976 13.21879051 11.42024672 20.01804429 11.44921875 27.453125 C11.49265484 29.2239954 11.53762127 30.99482881 11.58398438 32.765625 C11.6418973 35.5198159 11.68765691 38.27259468 11.70678711 41.02734375 C11.73178605 43.71294441 11.80564025 46.39371117 11.88671875 49.078125 C11.87976486 49.89903625 11.87281097 50.71994751 11.86564636 51.56573486 C11.95798295 53.95964167 12.11683899 55.76943741 13 58 C14.92239785 59.71800015 16.79595735 60.85852933 19.09077454 62.02536011 C21.48209564 63.24610485 22.85872828 64.77102934 24.5 66.875 C26.84567289 69.72827865 29.2215026 72.13879153 32.0625 74.5 C37.18925793 78.9158208 41.63906669 82.85472402 42.4375 89.8125 C40.69767264 97.88912978 32.62958793 104.41588532 27 110 C26.40316406 110.64324219 25.80632812 111.28648437 25.19140625 111.94921875 C21.71998724 115.65373064 19.12285247 117.87547141 14 119 C14 118.34 14 117.68 14 117 C13.34 117 12.68 117 12 117 C12 120.3 12 123.6 12 127 C13.588125 127.04125 15.17625 127.0825 16.8125 127.125 C24.5397038 127.82384272 31.01537119 131.01537119 36.5 136.5 C41.29082151 144.48470252 41.99897875 150.7306299 41 160 C38.85812017 167.58582439 34.62338651 171.95694024 28 176 C29.03125 176.515625 30.0625 177.03125 31.125 177.5625 C37.46057254 181.19934996 41.0895459 185.96605535 43 193 C44.04941159 201.70459299 43.15417786 208.79199999 38 216 C32.10835424 222.92343144 23.03014889 226.3700421 14.10644531 227.16967773 C11.96748075 227.31950497 9.82851839 227.44578675 7.6875 227.5625 C6.94693359 227.60568359 6.20636719 227.64886719 5.44335938 227.69335938 C3.62908536 227.79870432 1.8145645 227.89978316 0 228 C0.495 228.94875 0.99 229.8975 1.5 230.875 C3 234 3 234 3 236 C3.66 236 4.32 236 5 236 C5 236.99 5 237.98 5 239 C1.76085771 241.15942819 0.75140267 241.27232978 -3 241.25 C-4.299375 241.25773437 -4.299375 241.25773437 -5.625 241.265625 C-8 241 -8 241 -11 239 C-11.328125 236.390625 -11.328125 236.390625 -11.25 233.25 C-11.22421875 232.1775 -11.1984375 231.105 -11.171875 230 C-10.99655756 226.93991379 -10.66541225 223.9943551 -10 221 C-10.59554687 220.74605469 -11.19109375 220.49210938 -11.8046875 220.23046875 C-16.69001019 217.49225407 -19.46996121 212.42146766 -21.375 207.3125 C-21.91911558 204.42868745 -22.17700989 201.92066325 -22 199 C-21.01 199 -20.02 199 -19 199 C-19.68707031 198.09378906 -20.37414062 197.18757812 -21.08203125 196.25390625 C-30.40988472 183.73526222 -33.08463801 173.62494137 -33.2734375 158.03515625 C-33.28569366 157.09236313 -33.29794983 156.14957001 -33.31057739 155.1782074 C-33.34250528 152.13961195 -33.36135945 149.10123069 -33.375 146.0625 C-33.38055908 145.02899414 -33.38611816 143.99548828 -33.3918457 142.93066406 C-33.43311368 127.75819737 -32.1620458 114.10648133 -28.50830078 99.35351562 C-27.35856277 94.03004085 -26.8666234 88.34641098 -28 83 C-31.57701693 77.59609459 -35.70344798 75.77153345 -41.9375 74.3125 C-42.618125 74.209375 -43.29875 74.10625 -44 74 C-44 73.34 -44 72.68 -44 72 C-44.59683594 72.01160156 -45.19367188 72.02320313 -45.80859375 72.03515625 C-94.98940144 72.54669511 -94.98940144 72.54669511 -104.57910156 64.70947266 C-106.29989557 62.6391978 -106.4852988 61.42868223 -106.73046875 58.76953125 C-106.81103516 57.96708984 -106.89160156 57.16464844 -106.97460938 56.33789062 C-107.04486328 55.50451172 -107.11511719 54.67113281 -107.1875 53.8125 C-107.3102832 52.5450293 -107.3102832 52.5450293 -107.43554688 51.25195312 C-107.63559709 49.16907732 -107.81937284 47.08464997 -108 45 C-105.525 44.505 -105.525 44.505 -103 44 C-101.54567381 48.98626123 -100.26284636 53.94861457 -99 59 C-79.2 59 -59.4 59 -39 59 C-39.33 55.37 -39.66 51.74 -40 48 C-40.08838686 44.5321154 -40.1445254 41.09108475 -40.125 37.625 C-40.12016602 36.71596924 -40.11533203 35.80693848 -40.11035156 34.87036133 C-39.90080831 11.2736959 -39.90080831 11.2736959 -33.203125 4.06640625 C-23.68139071 -4.80947397 -11.53643931 -6.7295896 0 0 Z " fill="#2FAB81" transform="translate(395,57)"/>
<path d="M0 0 C8.73239429 7.6524162 15.51250753 16.98272482 16.34985352 28.91748047 C17.07225808 45.22216926 14.4064576 59.08512612 3.1484375 71.625 C-6.39469682 80.53474045 -18.38947384 84.49295052 -31.23828125 84.11328125 C-44.52198825 83.19786499 -56.77324824 78.4439227 -65.890625 68.4453125 C-73.87240814 57.90147551 -78.4061588 44.18315393 -76.7890625 30.9375 C-73.83930858 17.32196922 -68.21699317 6.18743872 -56.7890625 -2.0625 C-38.4971878 -13.04705362 -17.36136784 -13.3815194 0 0 Z " fill="#0C4F52" transform="translate(336.7890625,196.0625)"/>
<path d="M0 0 C2.75 2.4375 2.75 2.4375 5 5 C5.53625 5.5775 6.0725 6.155 6.625 6.75 C10.57814976 13.21879051 11.42024672 20.01804429 11.44921875 27.453125 C11.49265484 29.2239954 11.53762127 30.99482881 11.58398438 32.765625 C11.6418973 35.5198159 11.68765691 38.27259468 11.70678711 41.02734375 C11.73178605 43.71294441 11.80564025 46.39371117 11.88671875 49.078125 C11.87976486 49.89903625 11.87281097 50.71994751 11.86564636 51.56573486 C11.95798295 53.95964167 12.11683899 55.76943741 13 58 C14.92239785 59.71800015 16.79595735 60.85852933 19.09077454 62.02536011 C21.48209564 63.24610485 22.85872828 64.77102934 24.5 66.875 C26.84567289 69.72827865 29.2215026 72.13879153 32.0625 74.5 C37.18925793 78.9158208 41.63906669 82.85472402 42.4375 89.8125 C40.69767264 97.88912978 32.62958793 104.41588532 27 110 C26.40316406 110.64324219 25.80632812 111.28648437 25.19140625 111.94921875 C21.71998724 115.65373064 19.12285247 117.87547141 14 119 C14 118.34 14 117.68 14 117 C12.68 117 11.36 117 10 117 C9.34 112.71 8.68 108.42 8 104 C-4.37405198 103.86694568 -16.64938342 104.23322114 -29 105 C-28.76216797 103.24236328 -28.76216797 103.24236328 -28.51953125 101.44921875 C-28.03811517 97.56625173 -27.77005744 93.72746073 -27.6875 89.8125 C-27.65011719 88.64332031 -27.61273438 87.47414063 -27.57421875 86.26953125 C-28.08758459 82.32744681 -29.20769482 80.77739963 -32 78 C-35.93212372 75.99819156 -39.63795856 74.66091537 -44 74 C-44 73.34 -44 72.68 -44 72 C-44.59683594 72.01160156 -45.19367188 72.02320313 -45.80859375 72.03515625 C-94.98940144 72.54669511 -94.98940144 72.54669511 -104.57910156 64.70947266 C-106.29989557 62.6391978 -106.4852988 61.42868223 -106.73046875 58.76953125 C-106.81103516 57.96708984 -106.89160156 57.16464844 -106.97460938 56.33789062 C-107.04486328 55.50451172 -107.11511719 54.67113281 -107.1875 53.8125 C-107.3102832 52.5450293 -107.3102832 52.5450293 -107.43554688 51.25195312 C-107.63559709 49.16907732 -107.81937284 47.08464997 -108 45 C-105.525 44.505 -105.525 44.505 -103 44 C-101.54567381 48.98626123 -100.26284636 53.94861457 -99 59 C-79.2 59 -59.4 59 -39 59 C-39.33 55.37 -39.66 51.74 -40 48 C-40.08838686 44.5321154 -40.1445254 41.09108475 -40.125 37.625 C-40.12016602 36.71596924 -40.11533203 35.80693848 -40.11035156 34.87036133 C-39.90080831 11.2736959 -39.90080831 11.2736959 -33.203125 4.06640625 C-23.68139071 -4.80947397 -11.53643931 -6.7295896 0 0 Z " fill="#FCBE80" transform="translate(395,57)"/>
<path d="M0 0 C0 0.66 0 1.32 0 2 C0.99 2 1.98 2 3 2 C11.64186667 9.69986224 16.9560645 19.53515239 17.62890625 31.03710938 C17.68884766 32.28717773 17.68884766 32.28717773 17.75 33.5625 C17.80542969 34.39974609 17.86085938 35.23699219 17.91796875 36.09960938 C18.1523304 40.58443918 18.15822579 43.93084512 16 48 C15.4225 49.11375 14.845 50.2275 14.25 51.375 C8.37925596 61.39236623 0.17034789 67.74950616 -11 71 C-23.72712134 72.53065602 -34.45138851 70.1399789 -44.55078125 62.23046875 C-52.918014 54.61054866 -55.89997467 45.2492678 -56.45263672 34.13061523 C-56.64187253 25.86764347 -54.93829004 19.29100343 -51 12 C-50.443125 10.906875 -49.88625 9.81375 -49.3125 8.6875 C-36.26566248 -6.47504091 -17.59634179 -6.54747601 0 0 Z " fill="#E5ECD1" transform="translate(215,76)"/>
<path d="M0 0 C1.14726562 0.01546875 2.29453125 0.0309375 3.4765625 0.046875 C6.375 0.25 6.375 0.25 8.375 1.25 C8.375 20.72 8.375 40.19 8.375 60.25 C12.005 60.25 15.635 60.25 19.375 60.25 C22.375 63.25 22.375 63.25 22.73828125 65.87890625 C22.71314453 67.33103516 22.71314453 67.33103516 22.6875 68.8125 C22.68363281 69.78316406 22.67976563 70.75382812 22.67578125 71.75390625 C22.375 74.25 22.375 74.25 20.375 76.25 C17.5546875 76.4453125 17.5546875 76.4453125 14.25 76.375 C13.15429688 76.35695313 12.05859375 76.33890625 10.9296875 76.3203125 C10.08664063 76.29710937 9.24359375 76.27390625 8.375 76.25 C8.39071045 76.84014893 8.4064209 77.43029785 8.42260742 78.03833008 C8.48497939 80.71295586 8.52399657 83.38742864 8.5625 86.0625 C8.58763672 86.99126953 8.61277344 87.92003906 8.63867188 88.87695312 C8.64833984 89.76962891 8.65800781 90.66230469 8.66796875 91.58203125 C8.6836792 92.40421143 8.69938965 93.2263916 8.71557617 94.07348633 C8.29365468 96.76985201 7.53529786 97.62937554 5.375 99.25 C2.78125 99.6484375 2.78125 99.6484375 -0.125 99.625 C-1.56359375 99.63660156 -1.56359375 99.63660156 -3.03125 99.6484375 C-6.07944677 99.18019041 -6.77662012 98.65805134 -8.625 96.25 C-8.96557617 94.07348633 -8.96557617 94.07348633 -8.91796875 91.58203125 C-8.9034668 90.24301758 -8.9034668 90.24301758 -8.88867188 88.87695312 C-8.86353516 87.94818359 -8.83839844 87.01941406 -8.8125 86.0625 C-8.79896484 85.12212891 -8.78542969 84.18175781 -8.77148438 83.21289062 C-8.73613096 80.89134962 -8.68678674 78.57096347 -8.625 76.25 C-9.20715775 76.25444122 -9.78931549 76.25888245 -10.38911438 76.26345825 C-16.43964182 76.3076515 -22.49012352 76.33784972 -28.54077148 76.35986328 C-30.79990501 76.36993058 -33.05902547 76.38358538 -35.31811523 76.40087891 C-38.56236999 76.42509508 -41.80645271 76.43647575 -45.05078125 76.4453125 C-46.06336502 76.45563507 -47.07594879 76.46595764 -48.11921692 76.47659302 C-49.05996567 76.47674408 -50.00071442 76.47689514 -50.9699707 76.47705078 C-51.79825882 76.481492 -52.62654694 76.48593323 -53.47993469 76.49050903 C-55.625 76.25 -55.625 76.25 -58.625 74.25 C-59.12890625 71.9296875 -59.12890625 71.9296875 -59.1875 69.125 C-59.23003906 68.21492188 -59.27257812 67.30484375 -59.31640625 66.3671875 C-58.29195556 61.7484776 -55.60495599 58.8396383 -52.625 55.25 C-51.86546021 54.30374756 -51.86546021 54.30374756 -51.09057617 53.33837891 C-49.55193855 51.423486 -47.99656216 49.5232893 -46.4375 47.625 C-42.19687249 42.4361312 -38.0001782 37.21863877 -33.875 31.9375 C-29.92173345 26.87984233 -25.91024643 21.8774306 -21.82421875 16.92578125 C-20.2724331 15.03772944 -18.73464294 13.13813246 -17.20703125 11.23046875 C-16.41683594 10.24691406 -15.62664062 9.26335937 -14.8125 8.25 C-13.75095703 6.9196875 -13.75095703 6.9196875 -12.66796875 5.5625 C-8.55805046 0.9103554 -6.2998419 -0.14220862 0 0 Z " fill="#30AB81" transform="translate(226.625,184.75)"/>
<path d="M0 0 C1.4375 1.94140625 1.4375 1.94140625 3 4.5625 C3.515625 5.40941406 4.03125 6.25632813 4.5625 7.12890625 C9.14344137 16.27834077 9.66090947 27.62724004 7.08984375 37.4921875 C2.70808944 48.56633184 -4.73002334 58.34453446 -15.75 63.375 C-25.00713652 67.20439101 -37.24227747 67.9271477 -46.6875 64.25 C-48.14707251 63.5439162 -49.58807277 62.79709958 -51 62 C-51.95712891 61.47986328 -51.95712891 61.47986328 -52.93359375 60.94921875 C-54.625 59.9375 -54.625 59.9375 -57 58 C-57 54.39293883 -55.97366 53.61542579 -53.53184509 51.1363678 C-52.7651223 50.38111061 -52.7651223 50.38111061 -51.98291016 49.6105957 C-51.44967636 49.07371124 -50.91644257 48.53682678 -50.36705017 47.9836731 C-48.59838422 46.20688563 -46.81906539 44.44120572 -45.0390625 42.67578125 C-43.8102292 41.44746632 -42.58191328 40.21863359 -41.35409546 38.98930359 C-38.77786505 36.41316297 -36.19653527 33.84227797 -33.61132812 31.27514648 C-30.29144667 27.9779642 -26.98276357 24.66981176 -23.67759132 21.35789204 C-21.14216118 18.81912684 -18.60178161 16.28536347 -16.05976486 13.75319481 C-14.83756258 12.53485194 -13.61671821 11.31514532 -12.39723587 10.09407997 C-10.6949942 8.39146907 -8.98642706 6.69548067 -7.27587891 5.0012207 C-6.51522881 4.23685448 -6.51522881 4.23685448 -5.73921204 3.45704651 C-2.2287401 0 -2.2287401 0 0 0 Z " fill="#D9F0E9" transform="translate(339,207)"/>
<path d="M0 0 C1.68359375 1.01171875 1.68359375 1.01171875 3.99609375 2.94921875 C3.99609375 6.56427455 2.96017725 7.33652318 0.50572205 9.81285095 C-0.00856857 10.31635574 -0.52285919 10.81986053 -1.05273438 11.33862305 C-1.58918076 11.87550751 -2.12562714 12.41239197 -2.67832947 12.96554565 C-4.45692117 14.74204387 -6.24591066 16.50767534 -8.03515625 18.2734375 C-9.26892166 19.50160896 -10.50202729 20.73044354 -11.73449707 21.95991516 C-14.98303071 25.19698425 -18.24047222 28.4249445 -21.49981689 31.65112305 C-24.82298726 34.94362734 -28.13770076 38.24462091 -31.453125 41.54492188 C-37.96177849 48.02138281 -44.47986904 54.48825741 -51.00390625 60.94921875 C-54.37402397 57.68735329 -56.6530666 55.26044388 -58.25390625 50.82421875 C-58.5684375 49.97601563 -58.88296875 49.1278125 -59.20703125 48.25390625 C-62.07528926 39.95845416 -62.9078053 28.14129203 -59.37890625 19.82421875 C-58.26171875 17.82421875 -58.26171875 17.82421875 -57.00390625 15.94921875 C-56.35035156 14.92828125 -56.35035156 14.92828125 -55.68359375 13.88671875 C-42.66873899 -4.88880943 -20.24620276 -10.61642991 0 0 Z " fill="#D9F1EA" transform="translate(328.00390625,198.05078125)"/>
<path d="M0 0 C-0.33 0.99 -0.66 1.98 -1 3 C-1.66 3 -2.32 3 -3 3 C-3.33 4.32 -3.66 5.64 -4 7 C-3.26394531 7.13277344 -2.52789062 7.26554687 -1.76953125 7.40234375 C-0.79371094 7.57894531 0.18210937 7.75554687 1.1875 7.9375 C2.63189453 8.19853516 2.63189453 8.19853516 4.10546875 8.46484375 C6.74239972 8.9523735 9.3719905 9.46671105 12 10 C12 10.66 12 11.32 12 12 C12.66 11.938125 13.32 11.87625 14 11.8125 C18.03139186 12.06446199 21.28690433 13.50077936 25 15 C25.99 15.33 26.98 15.66 28 16 C27.01 12.7 26.02 9.4 25 6 C29.29754656 8.86503104 29.75418906 10.83210401 30.81640625 15.87890625 C31.07496582 17.43850124 31.32306371 18.99985485 31.5625 20.5625 C31.75755127 21.80713013 31.75755127 21.80713013 31.95654297 23.0769043 C33.07943864 30.67897948 33.51630874 38.25280928 33.7890625 45.92578125 C33.92403353 49.3468998 34.34708342 52.63373339 35 56 C30.13948404 58.59227518 25.34728867 58.18689553 20 58 C20 57.34 20 56.68 20 56 C19.401875 55.9175 18.80375 55.835 18.1875 55.75 C15.4033704 54.79544128 14.56688858 53.42867729 13 51 C10.525 51.495 10.525 51.495 8 52 C7.690625 52.94875 7.38125 53.8975 7.0625 54.875 C6 58 6 58 5 60 C1.28400809 60.20086443 0.22791555 60.1519437 -3 58 C-4.65549531 57.61500109 -6.3222433 57.27206865 -8 57 C-8.66 59.64 -9.32 62.28 -10 65 C-13.875 63.25 -13.875 63.25 -15 61 C-17.07637858 45.90139524 -20.58645536 18.65756531 -11 6 C-7.40992952 2.11771448 -5.4438228 0 0 0 Z " fill="#EC6E65" transform="translate(371,57)"/>
<path d="M0 0 C0 0.33 0 0.66 0 1 C-6.27 1.33 -12.54 1.66 -19 2 C-19 9.26 -19 16.52 -19 24 C-17.35 24 -15.7 24 -14 24 C-13.67 25.32 -13.34 26.64 -13 28 C-15.31 29.32 -17.62 30.64 -20 32 C-21.32 30.02 -22.64 28.04 -24 26 C-26.36802331 27.60253877 -28.16576754 28.85776852 -30 31 C-30.49734205 33.91836559 -30.62781363 35.93515472 -30.4375 38.8125 C-30.41010742 39.55443604 -30.38271484 40.29637207 -30.35449219 41.06079102 C-30.29228779 42.6072251 -30.21611478 44.15315622 -30.12646484 45.69824219 C-30.00512625 47.90669829 -29.94171688 50.10918385 -29.89453125 52.3203125 C-29.69072772 59.20838658 -29.06176234 65.14642146 -26.10546875 71.421875 C-24.24926164 75.75083858 -23.25811209 80.33563793 -22.125 84.8984375 C-20.91650181 88.23019987 -19.53005471 89.60698992 -17 92 C-17 92.99 -17 93.98 -17 95 C-16.21625 95.144375 -15.4325 95.28875 -14.625 95.4375 C-12 96 -12 96 -10 97 C-9.71125 97.78375 -9.4225 98.5675 -9.125 99.375 C-7.8466064 102.35791841 -6.58998081 103.1619491 -4 105 C-3.67 105.99 -3.34 106.98 -3 108 C0.35276343 110.32114391 4.02418958 110.54125264 8 111 C8 111.33 8 111.66 8 112 C1.41331085 112.47903194 -3.2865618 111.38142261 -9 108 C-11.94915613 105.14597794 -12.84824452 101.89824931 -14 98 C-14.6290625 98.03222656 -15.258125 98.06445312 -15.90625 98.09765625 C-20.02520778 98.041827 -22.9429124 97.81692312 -26.26953125 95.24609375 C-37.25387509 83.1696163 -40.12956231 70.57095533 -40.203125 54.68359375 C-40.20882507 53.70947037 -40.21452515 52.73534698 -40.22039795 51.73170471 C-40.22980232 49.67686025 -40.23636367 47.62200101 -40.24023438 45.56713867 C-40.24989574 42.47091347 -40.2809452 39.37536553 -40.3125 36.27929688 C-40.45735032 9.18602547 -40.45735032 9.18602547 -35 1 C-32.24563134 0.60130133 -29.70492068 0.39281104 -26.9375 0.3125 C-26.1448877 0.27906494 -25.35227539 0.24562988 -24.53564453 0.21118164 C-16.35940704 -0.1000554 -8.18036245 -0.093194 0 0 Z " fill="#367975" transform="translate(402,160)"/>
<path d="M0 0 C1.0209375 0.7734375 1.0209375 0.7734375 2.0625 1.5625 C3.0834375 1.68625 3.0834375 1.68625 4.125 1.8125 C6.80282127 2.84907597 7.98663632 4.50053614 9.29296875 7.00390625 C11.19464979 13.32675437 11.5215614 21.80721082 9.109375 28.015625 C7.875 29.8125 7.875 29.8125 5.0625 32.5625 C4.34320313 33.26890625 3.62390625 33.9753125 2.8828125 34.703125 C-0.71604271 37.07577746 -3.7067044 37.15538681 -7.875 37.0625 C-8.56529297 37.07796875 -9.25558594 37.0934375 -9.96679688 37.109375 C-15.07869345 37.0706118 -18.01332484 35.76833144 -21.9375 32.5625 C-23.3125 30.3125 -23.3125 30.3125 -23.9375 28.5625 C-24.9275 28.5625 -25.9175 28.5625 -26.9375 28.5625 C-28.55570403 20.87603086 -29.2606185 13.3410555 -25.28125 6.3203125 C-19.46155382 -1.29266215 -8.72179338 -4.26811165 0 0 Z " fill="#FDD569" transform="translate(203.9375,91.4375)"/>
<path d="M0 0 C1.93208903 3.47776025 1.86986657 5.8935762 1.5625 9.8125 C2.490625 9.915625 3.41875 10.01875 4.375 10.125 C7.78564712 10.86062977 8.31994857 11.3749441 10.5625 13.8125 C12.22066784 14.50003301 13.88709336 15.16811283 15.5625 15.8125 C17.5625 17.8125 17.5625 17.8125 17.9375 21.25 C17.5625 24.8125 17.5625 24.8125 15.86743164 26.49487305 C8.94442793 30.4524465 -2.82671629 29.17427573 -10.4375 27.8125 C-15.28569743 25.73612718 -18.37634974 22.00627586 -21.4375 17.8125 C-22.20578125 16.93980469 -22.9740625 16.06710938 -23.765625 15.16796875 C-24.31734375 14.39066406 -24.8690625 13.61335938 -25.4375 12.8125 C-24.9425 11.3275 -24.9425 11.3275 -24.4375 9.8125 C-22.7875 9.8125 -21.1375 9.8125 -19.4375 9.8125 C-19.540625 8.595625 -19.64375 7.37875 -19.75 6.125 C-19.75 2.56105793 -19.51064328 1.91072098 -17.25 -1.125 C-11.40774874 -5.40931759 -5.49867405 -4.93470748 0 0 Z " fill="#E7F6F1" transform="translate(439.4375,106.1875)"/>
<path d="M0 0 C0 4.95 0 9.9 0 15 C1.381875 14.01 2.76375 13.02 4.1875 12 C7.62638984 9.53631772 9.73581615 8.52865671 14 9 C15 10 15 10 15.375 12.75 C14.95614139 16.38010798 14.12909545 17.10774183 11.56884766 19.51904297 C9.79246717 21.19590634 8.10206141 22.94097936 6.40625 24.69921875 C5.10430473 26.02878104 3.80221868 27.35820549 2.5 28.6875 C1.84902344 29.36361328 1.19804687 30.03972656 0.52734375 30.73632812 C-3.69284492 35.02045905 -6.68419549 37.7762615 -12.89453125 38.1953125 C-13.85746094 38.17210937 -14.82039063 38.14890625 -15.8125 38.125 C-16.78832031 38.10695313 -17.76414062 38.08890625 -18.76953125 38.0703125 C-19.87361328 38.03550781 -19.87361328 38.03550781 -21 38 C-21.33 37.34 -21.66 36.68 -22 36 C-22.94875 35.54625 -23.8975 35.0925 -24.875 34.625 C-28.02514072 32.98692683 -29.04752616 31.84102481 -31 29 C-26.91292695 24.86361198 -22.81942122 20.73374208 -18.71972656 16.60986328 C-17.32501851 15.20507692 -15.93210796 13.79850363 -14.54101562 12.39013672 C-12.54502969 10.36998287 -10.5427381 8.35627344 -8.5390625 6.34375 C-7.91504547 5.7094104 -7.29102844 5.0750708 -6.64810181 4.42150879 C-2.22774341 0 -2.22774341 0 0 0 Z " fill="#F8CEBF" transform="translate(320,226)"/>
<path d="M0 0 C7.2150053 0.52494134 14.04552773 1.7668029 21.0625 3.5 C22.4846582 3.83837891 22.4846582 3.83837891 23.93554688 4.18359375 C30.86177714 5.86177714 30.86177714 5.86177714 32 7 C32.52607256 13.16605974 32.49554223 20.24377289 30 26 C26.74455074 29.3791718 23.61893541 29.49713485 19.0625 29.75 C17.85722656 29.82734375 16.65195312 29.9046875 15.41015625 29.984375 C12.40648733 29.99813752 9.90033954 29.72646076 7 29 C7 28.34 7 27.68 7 27 C6.4225 26.87625 5.845 26.7525 5.25 26.625 C2.94900359 25.98583433 1.05890385 25.20694364 -1 24 C-2.35439668 21.29120665 -2.06501451 18.99066732 -2 16 C-2.66 16 -3.32 16 -4 16 C-3.67 14.35 -3.34 12.7 -3 11 C-1.35 10.67 0.3 10.34 2 10 C2 11.65 2 13.3 2 15 C2.99 15 3.98 15 5 15 C4.67 13.02 4.34 11.04 4 9 C4.99 9 5.98 9 7 9 C6.67 8.34 6.34 7.68 6 7 C3.69 7 1.38 7 -1 7 C-0.67 4.69 -0.34 2.38 0 0 Z " fill="#F4A298" transform="translate(366,68)"/>
<path d="M0 0 C2.375 0.25 2.375 0.25 5 1 C5.28875 1.66 5.5775 2.32 5.875 3 C6.431875 3.99 6.431875 3.99 7 5 C10.56206661 5.81870185 10.56206661 5.81870185 14 6 C14.80246037 12.71334535 14.80246037 12.71334535 12.80349731 15.91845703 C11.03606915 17.90459704 9.18778599 19.73793761 7.25390625 21.5625 C6.56820053 22.23925781 5.88249481 22.91601562 5.17601013 23.61328125 C2.98960106 25.76166163 0.77670021 27.88031273 -1.4375 30 C-2.92429308 31.45522807 -4.40934085 32.9122416 -5.89257812 34.37109375 C-8.59844895 37.01850363 -11.30786797 39.66172869 -14.04077148 42.28125 C-14.58926254 42.80783203 -15.1377536 43.33441406 -15.7028656 43.87695312 C-17 45 -17 45 -18 45 C-18.04944066 40.35524041 -18.08573863 35.71063404 -18.10986328 31.06567383 C-18.11992041 29.48556856 -18.13356785 27.9054819 -18.15087891 26.32543945 C-18.17514022 24.0541525 -18.18648582 21.78311164 -18.1953125 19.51171875 C-18.20563507 18.80536789 -18.21595764 18.09901703 -18.22659302 17.3712616 C-18.22743775 13.67802208 -18.10720523 12.16080784 -16 9 C-12.875 8.8125 -12.875 8.8125 -10 9 C-9.67 7.68 -9.34 6.36 -9 5 C-7.34385343 4.61781233 -5.67542976 4.28604898 -4 4 C-3.67 4.33 -3.34 4.66 -3 5 C-2.01 3.35 -1.02 1.7 0 0 Z " fill="#F3CABC" transform="translate(306,202)"/>
<path d="M0 0 C1.98 0 3.96 0 6 0 C5.99097656 0.88300781 5.98195313 1.76601562 5.97265625 2.67578125 C6.25755028 14.20779593 9.95089791 21.05450398 17.9375 29.1875 C18.94815643 30.13596219 19.96495606 31.07821315 21 32 C21.33 31.01 21.66 30.02 22 29 C35.07420272 28.42879697 35.07420272 28.42879697 40 32 C44.47861293 36.9627873 45.28865688 39.92296921 45.22265625 46.45703125 C44.79897807 51.29588207 42.64572064 54.8750966 39 58 C35.625 57.3125 35.625 57.3125 32 56 C30.75 53.5 30.75 53.5 30 51 C29.01 50.34 28.02 49.68 27 49 C27 48.34 27 47.68 27 47 C26.34 47 25.68 47 25 47 C23.44921875 45.42578125 23.44921875 45.42578125 21.6875 43.3125 C18.91500692 40.04699036 16.07399141 36.98084015 13 34 C12.01 34.495 12.01 34.495 11 35 C10.71125 34.2575 10.4225 33.515 10.125 32.75 C8.29122748 28.04544636 8.29122748 28.04544636 5.0390625 24.30078125 C-0.23240897 18.35270329 -0.46133216 7.68886929 0 0 Z " fill="#6BC7C0" transform="translate(377,211)"/>
<path d="M0 0 C0.4140625 2.94140625 0.4140625 2.94140625 0.625 6.5625 C0.69976562 7.76003906 0.77453125 8.95757812 0.8515625 10.19140625 C0.90054687 11.11824219 0.94953125 12.04507813 1 13 C1.66 13 2.32 13 3 13 C3 16.3 3 19.6 3 23 C5.3821875 23.061875 5.3821875 23.061875 7.8125 23.125 C15.69687452 23.83805713 22.28107757 27.09138531 27.6875 32.875 C28.120625 33.57625 28.55375 34.2775 29 35 C28.505 35.99 28.505 35.99 28 37 C27.2575 36.030625 26.515 35.06125 25.75 34.0625 C24.02690085 31.97612639 23.26131306 31.09887521 20.6875 30.125 C20.130625 30.08375 19.57375 30.0425 19 30 C19 29.34 19 28.68 19 28 C6.82615163 24.48589944 -2.61528614 24.61668737 -15 27 C-15.33 25.68 -15.66 24.36 -16 23 C-17.65 23 -19.3 23 -21 23 C-21 15.74 -21 8.48 -21 1 C-17.90625 0.649375 -14.8125 0.29875 -11.625 -0.0625 C-10.65127441 -0.17601807 -9.67754883 -0.28953613 -8.67431641 -0.40649414 C-7.90780762 -0.49020264 -7.14129883 -0.57391113 -6.3515625 -0.66015625 C-5.56604004 -0.74918213 -4.78051758 -0.83820801 -3.97119141 -0.92993164 C-2 -1 -2 -1 0 0 Z " fill="#56AEA9" transform="translate(404,161)"/>
<path d="M0 0 C2.75 2.4375 2.75 2.4375 5 5 C5.53625 5.5775 6.0725 6.155 6.625 6.75 C12.23152167 15.92430819 11.35243448 25.7380167 11.1875 36.0625 C11.17242751 37.70767006 11.15874364 39.35285345 11.14648438 40.99804688 C11.11367782 44.99903141 11.06203766 48.99936631 11 53 C8.44822242 49.17233362 8.66992779 45.94316003 8.5625 41.5 C8.28838266 34.45136589 7.68899723 27.53721573 6.625 20.5625 C6.51099854 19.76457031 6.39699707 18.96664062 6.27954102 18.14453125 C5.61675206 14.03585955 4.91564447 11.05409686 2 8 C2.33 8.5775 2.66 9.155 3 9.75 C4 12 4 12 4 16 C-1.46864457 14.98408579 -6.76390013 13.92908943 -12 12 C-12 11.34 -12 10.68 -12 10 C-12.72445313 9.95101562 -13.44890625 9.90203125 -14.1953125 9.8515625 C-19.41458867 9.44793848 -24.09813658 8.98724193 -29 7 C-28.34 5.35 -27.68 3.7 -27 2 C-26.34 2 -25.68 2 -25 2 C-24.67 1.34 -24.34 0.68 -24 0 C-24.99 -0.33 -25.98 -0.66 -27 -1 C-18.73846186 -5.80321985 -8.14428633 -4.75083369 0 0 Z " fill="#FB977F" transform="translate(395,57)"/>
<path d="M0 0 C0.8971875 1.2375 0.8971875 1.2375 1.8125 2.5 C2.534375 3.325 3.25625 4.15 4 5 C4.99 5 5.98 5 7 5 C7.99 5 8.98 5 10 5 C9.30132812 5.6290625 8.60265625 6.258125 7.8828125 6.90625 C0.57987461 13.71666784 0.57987461 13.71666784 -2 23 C-0.91447634 24.31262571 -0.91447634 24.31262571 1.72265625 24.09765625 C2.82480469 24.08605469 3.92695313 24.07445312 5.0625 24.0625 C6.16722656 24.05347656 7.27195312 24.04445312 8.41015625 24.03515625 C9.26480469 24.02355469 10.11945313 24.01195312 11 24 C11.66 22.68 12.32 21.36 13 20 C13 21.98 13 23.96 13 26 C10.69 26 8.38 26 6 26 C6 30.62 6 35.24 6 40 C5.67 40 5.34 40 5 40 C5 35.38 5 30.76 5 26 C3.02 26 1.04 26 -1 26 C-0.54810657 29.04274908 -0.0887225 32.08405053 0.375 35.125 C0.50132812 35.9809375 0.62765625 36.836875 0.7578125 37.71875 C1.78567265 44.51661435 1.78567265 44.51661435 4 51 C4.99 51.33 5.98 51.66 7 52 C7.93151032 53.69667951 8.86077332 55.39467148 9.7734375 57.1015625 C11.50678071 59.78438033 13.7139653 61.52996017 16.18359375 63.51953125 C19.01632907 65.82836283 21.50828852 68.32596817 24 71 C24 71.66 24 72.32 24 73 C24.66 73 25.32 73 26 73 C29.5711885 75.90159066 30.80086322 78.60316512 32 83 C30.35 82.67 28.7 82.34 27 82 C26.896875 81.38125 26.79375 80.7625 26.6875 80.125 C26.12474627 77.63473516 26.12474627 77.63473516 23 76 C23 75.34 23 74.68 23 74 C21.989375 73.855625 20.97875 73.71125 19.9375 73.5625 C14.54900771 72.09990924 11.98387087 67.40778493 9 63 C8.01 63.99 8.01 63.99 7 65 C5.64560332 62.29120665 5.93498549 59.99066732 6 57 C5.34 57 4.68 57 4 57 C3.67 56.34 3.34 55.68 3 55 C2.34 55.99 1.68 56.98 1 58 C-0.36582575 54.67903283 -1.68598617 51.3417546 -3 48 C-3.29648437 47.30519531 -3.59296875 46.61039063 -3.8984375 45.89453125 C-6.51062389 39.20888587 -6.7080248 32.30162741 -6.91943359 25.20410156 C-7.00251466 22.93120501 -7.14978159 20.66774672 -7.30078125 18.3984375 C-7.87401944 7.34380489 -7.87401944 7.34380489 -5.4375 3.59765625 C-3.68279015 2.09412463 -2.08881574 0.97513592 0 0 Z " fill="#50A7A3" transform="translate(378,185)"/>
<path d="M0 0 C0.33 0 0.66 0 1 0 C1 11.55 1 23.1 1 35 C-8.57 35 -18.14 35 -28 35 C-21.2263095 25.96841267 -14.17348886 17.20263638 -7.0625 8.4375 C-6.48234131 7.72207031 -5.90218262 7.00664062 -5.30444336 6.26953125 C-4.49052124 5.26792969 -4.49052124 5.26792969 -3.66015625 4.24609375 C-3.17168213 3.64466553 -2.68320801 3.0432373 -2.17993164 2.42358398 C-1 1 -1 1 0 0 Z " fill="#CCF0E3" transform="translate(217,210)"/>
<path d="M0 0 C6.47814358 0.29143319 9.63873897 2.53572698 14.375 6.8125 C15.00277344 7.34681641 15.63054687 7.88113281 16.27734375 8.43164062 C21.58132948 13.08837972 21.58132948 13.08837972 22 17 C16.71874942 25.01877955 9.67928452 30.0893718 1 34 C0.69255859 32.75283203 0.69255859 32.75283203 0.37890625 31.48046875 C0.10949219 30.39378906 -0.15992188 29.30710938 -0.4375 28.1875 C-0.70433594 27.10855469 -0.97117187 26.02960938 -1.24609375 24.91796875 C-1.76077412 22.9259157 -2.34937175 20.95188476 -3 19 C-3.53524715 11.95944139 -3.40918098 6.25016514 0 0 Z " fill="#F6F8F4" transform="translate(403,131)"/>
<path d="M0 0 C0.33 0 0.66 0 1 0 C0.98259766 1.05127075 0.98259766 1.05127075 0.96484375 2.1237793 C0.93528847 5.3128468 0.9670292 8.49849134 1 11.6875 C0.98066406 12.79029297 0.96132813 13.89308594 0.94140625 15.02929688 C0.85844972 20.92170494 0.85844972 20.92170494 3.72460938 25.74902344 C5.76868512 26.98206268 7.8408364 27.98722135 10 29 C12.03125 30.9921875 12.03125 30.9921875 13.5 32.875 C15.84567289 35.72827865 18.2215026 38.13879153 21.0625 40.5 C26.18925793 44.9158208 30.63906669 48.85472402 31.4375 55.8125 C29.69940681 63.8810794 21.63442641 70.42888175 16 76 C15.35675781 76.66644531 14.71351563 77.33289063 14.05078125 78.01953125 C13.47714844 78.61121094 12.90351563 79.20289063 12.3125 79.8125 C11.73113281 80.41707031 11.14976562 81.02164063 10.55078125 81.64453125 C9 83 9 83 7 83 C7.33 81.35 7.66 79.7 8 78 C6.68 77.67 5.36 77.34 4 77 C3.765625 74.703125 3.765625 74.703125 4 72 C5.609375 70.234375 5.609375 70.234375 7.75 68.75 C8.44609375 68.24984375 9.1421875 67.7496875 9.859375 67.234375 C12 66 12 66 14.0390625 65.51953125 C16.53080604 64.85936812 17.75036271 63.68413342 19.625 61.9375 C22.79058824 59 22.79058824 59 25 59 C23.78658725 53.05427752 21.52568739 49.10343426 17 45 C15.67703914 44.31297978 14.34378688 43.64533639 13 43 C10.25 40.625 10.25 40.625 8 38 C8 36.68 8 35.36 8 34 C7.34 34 6.68 34 6 34 C5.67 33.34 5.34 32.68 5 32 C4.34 31.7525 3.68 31.505 3 31.25 C2.34 30.8375 1.68 30.425 1 30 C0.375 26.9375 0.375 26.9375 0 24 C-0.66 23.67 -1.32 23.34 -2 23 C-1.67 22.67 -1.34 22.34 -1 22 C-0.84285346 20.36743242 -0.74914586 18.72864662 -0.68359375 17.08984375 C-0.62075195 15.60581055 -0.62075195 15.60581055 -0.55664062 14.09179688 C-0.49766602 12.53041992 -0.49766602 12.53041992 -0.4375 10.9375 C-0.39431641 9.89271484 -0.35113281 8.84792969 -0.30664062 7.77148438 C-0.20018775 5.18113116 -0.0981724 2.59067814 0 0 Z " fill="#FAC5B7" transform="translate(406,91)"/>
<path d="M0 0 C1.65 0.33 3.3 0.66 5 1 C5.99 5.62 6.98 10.24 8 15 C10.21074219 14.98839844 12.42148437 14.97679688 14.69921875 14.96484375 C30.83007315 14.89954447 46.89420533 14.96330517 63 16 C63 16.33 63 16.66 63 17 C59.7 17.33 56.4 17.66 53 18 C54.7015625 17.9690625 54.7015625 17.9690625 56.4375 17.9375 C60 18 60 18 61 19 C61 20.65 61 22.3 61 24 C57.37 24.33 53.74 24.66 50 25 C50 24.34 50 23.68 50 23 C49.02240723 23.01571045 48.04481445 23.0314209 47.03759766 23.04760742 C43.36613397 23.1024339 39.69470548 23.13653905 36.02294922 23.16479492 C34.44215789 23.17976271 32.86140722 23.20014437 31.28076172 23.22631836 C11.24600741 23.54945956 11.24600741 23.54945956 3.37890625 18.2265625 C1.46660908 15.13871721 1.70642819 12.96674772 1.9375 9.375 C2.21265196 5.99535102 2.21265196 5.99535102 2 3 C1.01 2.34 0.02 1.68 -1 1 C-0.67 0.67 -0.34 0.34 0 0 Z " fill="#F19F98" transform="translate(288,101)"/>
<path d="M0 0 C1.32 0.33 2.64 0.66 4 1 C3.98839844 1.90363281 3.97679687 2.80726562 3.96484375 3.73828125 C3.95582031 4.91777344 3.94679688 6.09726563 3.9375 7.3125 C3.92589844 8.48425781 3.91429687 9.65601562 3.90234375 10.86328125 C3.85100102 14.03059195 3.85100102 14.03059195 5 17 C14.18145405 21.04706019 24.91272455 20.5435045 34.75 20.6875 C36.33336004 20.72075705 37.91669454 20.75525408 39.5 20.79101562 C43.33318966 20.8749438 47.16633109 20.94219476 51 21 C51 21.66 51 22.32 51 23 C51.7734375 22.7525 51.7734375 22.7525 52.5625 22.5 C55.73363876 21.84951 58.77218334 21.9379266 62 22 C61.67 20.35 61.34 18.7 61 17 C60.3709375 17.01160156 59.741875 17.02320312 59.09375 17.03515625 C53.61930912 17.09286873 48.41542194 16.80228473 43 16 C43 15.67 43 15.34 43 15 C49.93 15 56.86 15 64 15 C64 18.3 64 21.6 64 25 C64.75925781 24.98839844 65.51851563 24.97679688 66.30078125 24.96484375 C67.29464844 24.95582031 68.28851563 24.94679688 69.3125 24.9375 C70.29863281 24.92589844 71.28476562 24.91429688 72.30078125 24.90234375 C77.54998741 25.09225714 79.50324608 27.32392536 83 31 C83.99 31.99 83.99 31.99 85 33 C86.78627237 37.64430815 86.54038006 43.37885981 85 48 C85.66 48.33 86.32 48.66 87 49 C86.5359375 49.8971875 86.5359375 49.8971875 86.0625 50.8125 C84.89790296 53.08956772 84.89790296 53.08956772 84 56 C85.65 56 87.3 56 89 56 C89 56.33 89 56.66 89 57 C86.36 57 83.72 57 81 57 C80.9906543 56.42032471 80.98130859 55.84064941 80.97167969 55.2434082 C80.9177593 52.59893054 80.83415871 49.95618107 80.75 47.3125 C80.73582031 46.40048828 80.72164063 45.48847656 80.70703125 44.54882812 C80.55261913 40.30249493 80.39733124 37.65826519 78.16796875 33.96484375 C74.13520484 30.30992439 69.31131668 28.80474495 64 28 C64 27.34 64 26.68 64 26 C63.40316406 26.01160156 62.80632812 26.02320313 62.19140625 26.03515625 C12.92766812 26.54755769 12.92766812 26.54755769 3.42089844 18.69580078 C1.73998715 16.68968226 1.52172298 15.56839659 1.26953125 12.98828125 C1.18896484 12.23095703 1.10839844 11.47363281 1.02539062 10.69335938 C0.95513672 9.90767578 0.88488281 9.12199219 0.8125 8.3125 C0.73064453 7.51521484 0.64878906 6.71792969 0.56445312 5.89648438 C0.36449155 3.932156 0.18067746 1.96619588 0 0 Z " fill="#BC837E" transform="translate(287,103)"/>
<path d="M0 0 C0 8.58 0 17.16 0 26 C-0.99 25.01 -1.98 24.02 -3 23 C-5.36802331 24.60253877 -7.16576754 25.85776852 -9 28 C-9.49732953 30.91829216 -9.6275029 32.93521952 -9.4375 35.8125 C-9.41083252 36.55371094 -9.38416504 37.29492188 -9.35668945 38.05859375 C-9.29561421 39.60430489 -9.2201611 41.14951016 -9.13085938 42.69384766 C-9.00484508 44.91461457 -8.92611768 47.13222951 -8.859375 49.35546875 C-8.61230068 55.98787002 -8.08385552 62.01566707 -5.6328125 68.2265625 C-4.81193431 70.5270483 -4.76603813 72.58239403 -5 75 C-5.474375 74.34 -5.94875 73.68 -6.4375 73 C-6.953125 72.34 -7.46875 71.68 -8 71 C-8.33 71 -8.66 71 -9 71 C-9.31919939 69.68911318 -9.62985947 68.37614752 -9.9375 67.0625 C-10.19853516 65.96615234 -10.19853516 65.96615234 -10.46484375 64.84765625 C-12.10594636 56.11507377 -12.28091909 47.29973668 -12.51757812 38.43945312 C-12.72126557 32.64781197 -13.38239265 27.56629144 -15 22 C-17.08883409 14.01227565 -17.08883409 14.01227565 -14.765625 9.71875 C-13.24905108 7.40635016 -11.70467126 5.17749979 -10 3 C-9.58363281 2.41605469 -9.16726563 1.83210937 -8.73828125 1.23046875 C-7 0 -7 0 0 0 Z " fill="#3A8280" transform="translate(381,163)"/>
<path d="M0 0 C0.66 0.66 1.32 1.32 2 2 C2.99 2.33 3.98 2.66 5 3 C4.34 3 3.68 3 3 3 C3 4.98 3 6.96 3 9 C4.98 9 6.96 9 9 9 C9.33 9.99 9.66 10.98 10 12 C9.01 12.495 9.01 12.495 8 13 C8 14.65 8 16.3 8 18 C7.01 18 6.02 18 5 18 C5 16.35 5 14.7 5 13 C2.49034386 13.70339566 2.49034386 13.70339566 0 15 C-0.88693303 17.04105639 -0.88693303 17.04105639 -1 19 C-0.34 19 0.32 19 1 19 C1.226875 20.216875 1.45375 21.43375 1.6875 22.6875 C2.7524753 27.00064995 4.6434705 29.05280337 8 32 C9.02813611 33.31175986 10.04084432 34.6369893 11 36 C8.09296702 35.65799612 6.47746636 35.45371993 4 34 C1.88889833 30.84379849 0.40875479 27.518641 -1 24 C-1.08807694 29.19653958 -0.90026345 34.20269995 -0.375 39.375 C0.15606015 45.55130233 -0.54449212 50.99753363 -2 57 C-5.875 55.25 -5.875 55.25 -7 53 C-8.43225983 42.58517236 -8.20150914 31.94045812 -8.03710938 21.45410156 C-8.01382845 19.91449741 -7.99830781 18.37473546 -7.99414062 16.83496094 C-7.97581829 13.14301075 -7.94315659 9.58160732 -7 6 C-4 3.875 -4 3.875 -1 3 C-0.67 2.01 -0.34 1.02 0 0 Z " fill="#F85E5D" transform="translate(363,65)"/>
<path d="M0 0 C9.09829198 1.1372865 9.09829198 1.1372865 11.4375 4 C14.49298871 8.07398494 15.39337356 11.94872587 15 17 C13.53556665 21.7016018 11.77808223 24.83128587 8 28 C6 29 6 29 0 29 C0 19.43 0 9.86 0 0 Z " fill="#E1F7F0" transform="translate(406,197)"/>
<path d="M0 0 C2.4375 0.1875 2.4375 0.1875 5 1 C5.69937532 2.31647119 6.36729133 3.65022151 7 5 C9.05000871 5.80528889 9.05000871 5.80528889 11 6 C11 6.66 11 7.32 11 8 C14.3 8 17.6 8 21 8 C21 8.33 21 8.66 21 9 C20.36191406 9.13277344 19.72382813 9.26554687 19.06640625 9.40234375 C18.24011719 9.57894531 17.41382813 9.75554687 16.5625 9.9375 C15.73878906 10.11152344 14.91507812 10.28554687 14.06640625 10.46484375 C12.02338796 10.80752994 12.02338796 10.80752994 11 12 C9.57044211 12.09891197 8.13609927 12.13079423 6.703125 12.1328125 C5.8265625 12.13410156 4.95 12.13539062 4.046875 12.13671875 C3.12390625 12.13285156 2.2009375 12.12898438 1.25 12.125 C0.3425 12.12886719 -0.565 12.13273437 -1.5 12.13671875 C-2.82257813 12.13478516 -2.82257813 12.13478516 -4.171875 12.1328125 C-4.9772168 12.13168457 -5.78255859 12.13055664 -6.61230469 12.12939453 C-9 12 -9 12 -14 11 C-14 14.96 -14 18.92 -14 23 C-13.34 23 -12.68 23 -12 23 C-12.33 23.99 -12.66 24.98 -13 26 C-13.18304688 25.35546875 -13.36609375 24.7109375 -13.5546875 24.046875 C-14.90811895 21.62555056 -14.90811895 21.62555056 -18.2578125 21.390625 C-20.17207031 21.32101563 -20.17207031 21.32101563 -22.125 21.25 C-23.40632813 21.19328125 -24.68765625 21.1365625 -26.0078125 21.078125 C-26.99523437 21.05234375 -27.98265625 21.0265625 -29 21 C-29 17.04 -29 13.08 -29 9 C-27.35 9 -25.7 9 -24 9 C-22.3125 11.4375 -22.3125 11.4375 -21 14 C-20.34 14.33 -19.68 14.66 -19 15 C-18.67 11.37 -18.34 7.74 -18 4 C-17.67 4.99 -17.34 5.98 -17 7 C-15.453125 7.185625 -15.453125 7.185625 -13.875 7.375 C-10.37883154 7.93889814 -7.31602373 8.78682059 -4 10 C-3.79503906 9.36191406 -3.59007812 8.72382812 -3.37890625 8.06640625 C-3.10949219 7.24011719 -2.84007812 6.41382812 -2.5625 5.5625 C-2.29566406 4.73878906 -2.02882813 3.91507812 -1.75390625 3.06640625 C-1 1 -1 1 0 0 Z " fill="#FA977C" transform="translate(380,107)"/>
<path d="M0 0 C2.375 0.25 2.375 0.25 5 1 C5.28875 1.66 5.5775 2.32 5.875 3 C6.431875 3.99 6.431875 3.99 7 5 C10.56206661 5.81870185 10.56206661 5.81870185 14 6 C14.58459368 10.11999359 14.91978167 12.64633596 12.53222656 16.16015625 C10.47893155 18.38004513 8.34687956 20.44903425 6.125 22.5 C5.00544922 23.59054688 5.00544922 23.59054688 3.86328125 24.703125 C-1.66259398 30 -1.66259398 30 -4 30 C-4.33 21.75 -4.66 13.5 -5 5 C-4.34 5 -3.68 5 -3 5 C-1.3553326 2.53673288 -1.3553326 2.53673288 0 0 Z " fill="#E6BFB2" transform="translate(306,202)"/>
<path d="M0 0 C6.81538887 -0.71740936 6.81538887 -0.71740936 10.08984375 1.265625 C11.87321933 2.76818275 13.51119771 4.20413224 15 6 C15 6.66 15 7.32 15 8 C15.680625 8.165 16.36125 8.33 17.0625 8.5 C21.3241174 10.67614506 24.53908955 13.88666265 27 18 C27.49609375 20.99609375 27.49609375 20.99609375 27 24 C24.953125 26.30078125 24.953125 26.30078125 22.25 28.3125 C21.36828125 28.98925781 20.4865625 29.66601562 19.578125 30.36328125 C17.22209708 31.85900201 15.67764534 32.45776284 13 33 C8.42451421 35.38755217 8.42451421 35.38755217 6.125 39.75 C6.08375 40.4925 6.0425 41.235 6 42 C7.65 42.33 9.3 42.66 11 43 C10.25 45.9375 10.25 45.9375 9 49 C6.875 49.875 6.875 49.875 5 50 C5 49.34 5 48.68 5 48 C3.68 48 2.36 48 1 48 C0.67 45.03 0.34 42.06 0 39 C0.7734375 38.52691406 1.546875 38.05382812 2.34375 37.56640625 C9.36179073 33.11064524 14.85601789 28.53588316 20 22 C18.61511136 17.31655843 16.01019487 14.84952945 12.3125 11.875 C11.80783203 11.44574219 11.30316406 11.01648438 10.78320312 10.57421875 C7.04602509 7.50321278 3.461259 5.71716384 -1 4 C-0.67 2.68 -0.34 1.36 0 0 Z " fill="#E8B5AF" transform="translate(404,126)"/>
<path d="M0 0 C2.82093544 1.4419386 4.74446519 2.49921645 5.98828125 5.484375 C6.00890625 6.061875 6.02953125 6.639375 6.05078125 7.234375 C5.39078125 6.615625 4.73078125 5.996875 4.05078125 5.359375 C0.5236951 2.58857421 0.5236951 2.58857421 -6.94921875 1.234375 C-6.94921875 10.804375 -6.94921875 20.374375 -6.94921875 30.234375 C-5.95921875 30.564375 -4.96921875 30.894375 -3.94921875 31.234375 C-7.90921875 31.234375 -11.86921875 31.234375 -15.94921875 31.234375 C-16.27921875 24.634375 -16.60921875 18.034375 -16.94921875 11.234375 C-17.27921875 11.234375 -17.60921875 11.234375 -17.94921875 11.234375 C-18.54654694 8.47173211 -18.94921875 6.07404731 -18.94921875 3.234375 C-6.29067237 -2.47088534 -6.29067237 -2.47088534 0 0 Z " fill="#66C3BA" transform="translate(412.94921875,195.765625)"/>
<path d="M0 0 C0 0.33 0 0.66 0 1 C-6.27 1.33 -12.54 1.66 -19 2 C-19 9.26 -19 16.52 -19 24 C-17.35 24 -15.7 24 -14 24 C-13.67 25.32 -13.34 26.64 -13 28 C-15.31 29.32 -17.62 30.64 -20 32 C-21.38308781 29.23382437 -21.11210196 26.98982 -21.09765625 23.8984375 C-21.09443359 22.68671875 -21.09121094 21.475 -21.08789062 20.2265625 C-21.07951172 18.95554688 -21.07113281 17.68453125 -21.0625 16.375 C-21.05798828 15.09625 -21.05347656 13.8175 -21.04882812 12.5 C-21.03701203 9.33328708 -21.02053815 6.16666644 -21 3 C-25.86462998 3.28160687 -25.86462998 3.28160687 -29.92578125 5.671875 C-30.61220703 6.70054687 -30.61220703 6.70054687 -31.3125 7.75 C-31.78300781 8.42546875 -32.25351562 9.1009375 -32.73828125 9.796875 C-35.37219636 14.39603327 -36.25967412 18.13147842 -36.37890625 23.4375 C-36.41306641 24.66210938 -36.44722656 25.88671875 -36.48242188 27.1484375 C-36.50884766 28.41945312 -36.53527344 29.69046875 -36.5625 31 C-36.62258289 33.52092472 -36.68624448 36.04176731 -36.75390625 38.5625 C-36.77783447 39.67753906 -36.8017627 40.79257813 -36.82641602 41.94140625 C-36.9846198 44.72899694 -37.37256341 47.28416363 -38 50 C-38.66 50 -39.32 50 -40 50 C-40.07558619 45.85981515 -40.12925873 41.72002241 -40.16479492 37.5793457 C-40.17964771 36.17823268 -40.19993556 34.77716405 -40.22631836 33.3762207 C-40.66393819 9.49590728 -40.66393819 9.49590728 -35 1 C-32.24563134 0.60130133 -29.70492068 0.39281104 -26.9375 0.3125 C-26.1448877 0.27906494 -25.35227539 0.24562988 -24.53564453 0.21118164 C-16.35940704 -0.1000554 -8.18036245 -0.093194 0 0 Z " fill="#3E6D6B" transform="translate(402,160)"/>
<path d="M0 0 C6.5027492 0.3363491 9.42563427 1.3167208 14 6 C15.89912801 9.06831906 16.27187755 11.41208135 16.25 15 C16.25515625 15.845625 16.2603125 16.69125 16.265625 17.5625 C15.98531155 20.13478811 15.2948187 21.7803108 14 24 C12.04539447 22.55637003 10.10301157 21.10245911 8.1796875 19.6171875 C6.10682361 18.00951068 6.10682361 18.00951068 4.1328125 16.9453125 C2.5 15.9375 2.5 15.9375 0 13 C-0.50178258 8.62274774 -0.34671061 4.3852472 0 0 Z " fill="#DDF6EF" transform="translate(406,240)"/>
<path d="M0 0 C1.32 0 2.64 0 4 0 C4 0.99 4 1.98 4 3 C5.32 3.33 6.64 3.66 8 4 C8 5.32 8 6.64 8 8 C9.32 8 10.64 8 12 8 C11.67 6.68 11.34 5.36 11 4 C11.99 4 12.98 4 14 4 C14 3.34 14 2.68 14 2 C14.99 2 15.98 2 17 2 C17.23616171 8.63876808 17.02854626 13.94290748 14 20 C11.69 20 9.38 20 7 20 C7 19.34 7 18.68 7 18 C5.35 17.67 3.7 17.34 2 17 C1.67 14.36 1.34 11.72 1 9 C0.34 9 -0.32 9 -1 9 C-1.625 6.1875 -1.625 6.1875 -2 3 C-1.34 2.01 -0.68 1.02 0 0 Z " fill="#FCCDBF" transform="translate(381,73)"/>
<path d="M0 0 C6 9 6 9 6 13 C7.670625 13.433125 7.670625 13.433125 9.375 13.875 C13 15 13 15 15 17 C15.17024827 21.19945732 14.62864939 24.96901499 12.4375 28.5625 C11.963125 29.036875 11.48875 29.51125 11 30 C6.545 29.01 6.545 29.01 2 28 C0.66581407 18.61304896 -0.32417212 9.50904899 0 0 Z " fill="#BE1930" transform="translate(361,86)"/>
<path d="M0 0 C3 1 3 1 5 4 C5.38041523 6.00915601 5.68356956 8.03347488 5.9375 10.0625 C7.08191524 20.3346844 7.08191524 20.3346844 12 29 C12.4140625 32.0390625 12.4140625 32.0390625 12.625 35.625 C12.69976562 36.81351563 12.77453125 38.00203125 12.8515625 39.2265625 C12.90054687 40.14179688 12.94953125 41.05703125 13 42 C9.56639875 40.58354678 7.97675983 39.02086086 5.9375 35.9375 C5.45152344 35.22464844 4.96554687 34.51179688 4.46484375 33.77734375 C0.37038108 26.01424252 -0.41220191 19.14325865 -0.1875 10.4375 C-0.17396484 9.42880859 -0.16042969 8.42011719 -0.14648438 7.38085938 C-0.11149576 4.91999379 -0.06241158 2.46029665 0 0 Z " fill="#306865" transform="translate(363,211)"/>
<path d="M0 0 C0.33 0 0.66 0 1 0 C1 9.9 1 19.8 1 30 C-8 31 -8 31 -10.5625 29.625 C-12.34561233 26.36888183 -12.85897824 23.98677811 -12.7265625 20.28515625 C-11.51372166 16.4705762 -8.42033329 15.11240327 -5.203125 12.97265625 C-1.35666424 9.52857347 -0.77677063 4.93740412 0 0 Z " fill="#B9122C" transform="translate(400,83)"/>
<path d="M0 0 C4.95 1.32 9.9 2.64 15 4 C15 4.33 15 4.66 15 5 C13.35 5.33 11.7 5.66 10 6 C10.495 6.94875 10.99 7.8975 11.5 8.875 C13 12 13 12 13 14 C13.66 14 14.32 14 15 14 C15 14.99 15 15.98 15 17 C11.76085771 19.15942819 10.75140267 19.27232978 7 19.25 C6.13375 19.25515625 5.2675 19.2603125 4.375 19.265625 C2 19 2 19 -1 17 C-1.328125 14.35546875 -1.328125 14.35546875 -1.25 11.1875 C-1.23453125 10.14980469 -1.2190625 9.11210937 -1.203125 8.04296875 C-1 5 -1 5 0 0 Z " fill="#AD8881" transform="translate(385,279)"/>
<path d="M0 0 C2 3 2 3 2 5 C2.66 5 3.32 5 4 5 C4.33 6.98 4.66 8.96 5 11 C5.99 11 6.98 11 8 11 C9.60546875 12.4609375 9.60546875 12.4609375 11.1875 14.375 C11.71730469 15.00148437 12.24710937 15.62796875 12.79296875 16.2734375 C14 18 14 18 14 20 C15.051875 20.0928125 15.051875 20.0928125 16.125 20.1875 C20.1547724 21.32634872 22.03191935 23.03191935 25 26 C25 27.32 25 28.64 25 30 C27.97 30 30.94 30 34 30 C34 30.99 34 31.98 34 33 C29.14076124 34.61974625 24.79040052 34.77843501 20.125 32.75 C17.88338485 30.90396399 17.2099623 29.5812529 16 27 C15.29875 26.505 14.5975 26.01 13.875 25.5 C13.25625 25.005 12.6375 24.51 12 24 C12 22.68 12 21.36 12 20 C9.69 19.34 7.38 18.68 5 18 C4.9175 17.21625 4.835 16.4325 4.75 15.625 C4.5025 14.75875 4.255 13.8925 4 13 C2.68 12.34 1.36 11.68 0 11 C0 7.37 0 3.74 0 0 Z " fill="#41908D" transform="translate(380,237)"/>
<path d="M0 0 C5.66818182 1.84545455 5.66818182 1.84545455 8.28125 3.0625 C11.59145459 4.20394986 14.31985242 4.19555854 17.8125 4.125 C18.97394531 4.10695313 20.13539063 4.08890625 21.33203125 4.0703125 C22.65267578 4.03550781 22.65267578 4.03550781 24 4 C23.67 4.66 23.34 5.32 23 6 C21.68 6 20.36 6 19 6 C19.46588495 11.70709064 20.93757784 15.15939723 24 20 C21.11424181 19.60196439 20.17810487 19.20990931 18.25 16.9375 C17.8375 16.298125 17.425 15.65875 17 15 C15.35 15.33 13.7 15.66 12 16 C11.690625 16.94875 11.38125 17.8975 11.0625 18.875 C10 22 10 22 9 24 C7.35 24 5.7 24 4 24 C4.28875 23.49210937 4.5775 22.98421875 4.875 22.4609375 C7.16640315 18.21229416 8.8782612 14.94021924 8 10 C6.15837012 7.23755517 4.09347174 5.09347174 1.75 2.75 C1.1725 2.1725 0.595 1.595 0 1 C0 0.67 0 0.34 0 0 Z " fill="#ED7478" transform="translate(367,93)"/>
<path d="M0 0 C1.77074917 -0.02705729 3.54161711 -0.04642195 5.3125 -0.0625 C6.29863281 -0.07410156 7.28476562 -0.08570312 8.30078125 -0.09765625 C13.54998741 0.09225714 15.50324608 2.32392536 19 6 C19.66 6.66 20.32 7.32 21 8 C22.78627237 12.64430815 22.54038006 18.37885981 21 23 C21.66 23.33 22.32 23.66 23 24 C22.690625 24.598125 22.38125 25.19625 22.0625 25.8125 C20.89790296 28.08956772 20.89790296 28.08956772 20 31 C21.65 31 23.3 31 25 31 C25 31.33 25 31.66 25 32 C22.36 32 19.72 32 17 32 C16.9906543 31.42032471 16.98130859 30.84064941 16.97167969 30.2434082 C16.9177593 27.59893054 16.83415871 24.95618107 16.75 22.3125 C16.73582031 21.40048828 16.72164063 20.48847656 16.70703125 19.54882812 C16.55261913 15.30249493 16.39733124 12.65826519 14.16796875 8.96484375 C10.13520484 5.30992439 5.31131668 3.80474495 0 3 C0 2.01 0 1.02 0 0 Z " fill="#C47757" transform="translate(351,128)"/>
<path d="M0 0 C0.33 0 0.66 0 1 0 C0.98259766 1.05127075 0.98259766 1.05127075 0.96484375 2.1237793 C0.93528847 5.3128468 0.9670292 8.49849134 1 11.6875 C0.98066406 12.79029297 0.96132813 13.89308594 0.94140625 15.02929688 C0.85844972 20.92170494 0.85844972 20.92170494 3.72460938 25.74902344 C5.76868512 26.98206268 7.8408364 27.98722135 10 29 C12.03125 30.9921875 12.03125 30.9921875 13.5 32.875 C15.84567289 35.72827865 18.2215026 38.13879153 21.0625 40.5 C25.01092232 43.84807741 28.30706788 47.5627823 31 52 C31 52.66 31 53.32 31 54 C30.34 54 29.68 54 29 54 C24.26923077 48.80769231 24.26923077 48.80769231 23 45 C20.31952082 43.59680951 20.31952082 43.59680951 17.125 42.4375 C13.7684618 41.13936896 11.00285525 40.0019035 8 38 C8 36.68 8 35.36 8 34 C7.34 34 6.68 34 6 34 C5.67 33.34 5.34 32.68 5 32 C4.34 31.7525 3.68 31.505 3 31.25 C2.34 30.8375 1.68 30.425 1 30 C0.375 26.9375 0.375 26.9375 0 24 C-0.66 23.67 -1.32 23.34 -2 23 C-1.67 22.67 -1.34 22.34 -1 22 C-0.84285346 20.36743242 -0.74914586 18.72864662 -0.68359375 17.08984375 C-0.62075195 15.60581055 -0.62075195 15.60581055 -0.55664062 14.09179688 C-0.49766602 12.53041992 -0.49766602 12.53041992 -0.4375 10.9375 C-0.39431641 9.89271484 -0.35113281 8.84792969 -0.30664062 7.77148438 C-0.20018775 5.18113116 -0.0981724 2.59067814 0 0 Z " fill="#F5E2BB" transform="translate(406,91)"/>
<path d="M0 0 C0.66 0.33 1.32 0.66 2 1 C-0.35384863 10.41539451 -5.74914381 17.97101727 -11 26 C-15.875 24.125 -15.875 24.125 -17 23 C-17.30437704 17.21683615 -16.58813841 12.55848445 -15 7 C-16.65 7 -18.3 7 -20 7 C-20 6.67 -20 6.34 -20 6 C-16.7 5.34 -13.4 4.68 -10 4 C-10.04882812 7.41796875 -10.04882812 7.41796875 -10.09765625 10.8359375 C-10.14466334 13.04937142 -10.14466334 13.04937142 -9 15 C-5.96343083 12.4011345 -4.53836261 9.37928272 -2.8125 5.8125 C-2.28269531 4.72582031 -1.75289063 3.63914062 -1.20703125 2.51953125 C-0.80871094 1.68808594 -0.41039062 0.85664063 0 0 Z " fill="#F1D3C9" transform="translate(431,277)"/>
<path d="M0 0 C0.33 0 0.66 0 1 0 C1.03758423 1.10456543 1.03758423 1.10456543 1.07592773 2.23144531 C1.19204273 5.57113378 1.31469918 8.91055097 1.4375 12.25 C1.47681641 13.40886719 1.51613281 14.56773438 1.55664062 15.76171875 C1.59853516 16.87675781 1.64042969 17.99179688 1.68359375 19.140625 C1.72025146 20.16704102 1.75690918 21.19345703 1.79467773 22.25097656 C1.97381275 24.64938352 2.37495075 26.69139484 3 29 C3.19823667 31.31000785 3.36168128 33.62313141 3.5 35.9375 C3.74728826 40.06633082 4.18878998 43.95112874 5 48 C4.5625 50.3125 4.5625 50.3125 4 52 C0.125 50.25 0.125 50.25 -1 48 C-3.07477731 32.91303908 -3.16579368 16.08034121 -1 1 C-0.67 0.67 -0.34 0.34 0 0 Z " fill="#E06262" transform="translate(357,70)"/>
<path d="M0 0 C0.33 0 0.66 0 1 0 C1.79725902 7.36040917 2.12886183 14.59760355 2 22 C1.34 22 0.68 22 0 22 C0.33 24.31 0.66 26.62 1 29 C-2.54972989 27.85901539 -4.47647215 25.72660561 -6.25 22.484375 C-7.92842715 16.92458505 -7.266516 10.7523036 -7 5 C-4.69 5 -2.38 5 0 5 C0 3.35 0 1.7 0 0 Z " fill="#2B8383" transform="translate(391,206)"/>
<path d="M0 0 C1.65 0.33 3.3 0.66 5 1 C5.99 5.62 6.98 10.24 8 15 C19.22 15 30.44 15 42 15 C42 15.33 42 15.66 42 16 C41.37432129 16.0501123 40.74864258 16.10022461 40.10400391 16.15185547 C37.27681225 16.38355804 34.45099085 16.62910209 31.625 16.875 C30.64015625 16.95363281 29.6553125 17.03226563 28.640625 17.11328125 C27.69960938 17.19707031 26.75859375 17.28085938 25.7890625 17.3671875 C24.91975098 17.44050293 24.05043945 17.51381836 23.15478516 17.58935547 C20.79544356 17.82973476 20.79544356 17.82973476 19 20 C16.1015625 20.3359375 16.1015625 20.3359375 12.625 20.375 C11.48289062 20.40335938 10.34078125 20.43171875 9.1640625 20.4609375 C6 20 6 20 3.58984375 18.390625 C1.46414321 15.19423992 1.69334228 13.17015339 1.9375 9.375 C2.21265196 5.99535102 2.21265196 5.99535102 2 3 C1.01 2.34 0.02 1.68 -1 1 C-0.67 0.67 -0.34 0.34 0 0 Z " fill="#F4C4BB" transform="translate(288,101)"/>
<path d="M0 0 C0.33 0.99 0.66 1.98 1 3 C2.65 3 4.3 3 6 3 C4.68 3.33 3.36 3.66 2 4 C2.33 5.65 2.66 7.3 3 9 C3.33 9 3.66 9 4 9 C4 12.3 4 15.6 4 19 C4.66 19 5.32 19 6 19 C5.67 19.99 5.34 20.98 5 22 C4.81695312 21.35546875 4.63390625 20.7109375 4.4453125 20.046875 C3.09188105 17.62555056 3.09188105 17.62555056 -0.2578125 17.390625 C-2.17207031 17.32101563 -2.17207031 17.32101563 -4.125 17.25 C-5.40632813 17.19328125 -6.68765625 17.1365625 -8.0078125 17.078125 C-8.99523437 17.05234375 -9.98265625 17.0265625 -11 17 C-11 13.04 -11 9.08 -11 5 C-9.35 5 -7.7 5 -6 5 C-4.3125 7.4375 -4.3125 7.4375 -3 10 C-2.34 10.33 -1.68 10.66 -1 11 C-0.67 7.37 -0.34 3.74 0 0 Z " fill="#F48A5D" transform="translate(362,111)"/>
<path d="M0 0 C4.89984267 0.45579932 7.46970256 1.56260513 11 5 C19.03851284 15.16635448 18.38261153 25.84900891 18.1875 38.0625 C18.17242751 39.70767006 18.15874364 41.35285345 18.14648438 42.99804688 C18.11367782 46.99903141 18.06203766 50.99936631 18 55 C15.44822413 51.17233619 15.66991691 47.94315415 15.5625 43.5 C15.2893926 36.47122094 14.69168137 29.5791907 13.625 22.625 C13.51099854 21.83544922 13.39699707 21.04589844 13.27954102 20.23242188 C12.5666051 15.83193563 11.52186547 12.76166525 9 9 C9 8.34 9 7.68 9 7 C8.01 6.67 7.02 6.34 6 6 C5.3125 3.9375 5.3125 3.9375 5 2 C3.35 1.67 1.7 1.34 0 1 C0 0.67 0 0.34 0 0 Z " fill="#F3B09C" transform="translate(388,55)"/>
<path d="M0 0 C0.99 0.33 1.98 0.66 3 1 C3 8.92 3 16.84 3 25 C2.01 25 1.02 25 0 25 C0.33 28.96 0.66 32.92 1 37 C0.01 37 -0.98 37 -2 37 C-2.66 36.01 -3.32 35.02 -4 34 C-3.34 34 -2.68 34 -2 34 C-2.33 31.69 -2.66 29.38 -3 27 C-2.34 27 -1.68 27 -1 27 C-1.66 18.75 -2.32 10.5 -3 2 C-2.01 1.34 -1.02 0.68 0 0 Z " fill="#439F9B" transform="translate(394,201)"/>
<path d="M0 0 C0 0.99 0 1.98 0 3 C0.01160156 3.89332031 0.02320313 4.78664062 0.03515625 5.70703125 C0.08129828 10.94744787 -0.01674396 15.8379058 -1 21 C-1.25152556 25.15686205 -1.25152556 25.15686205 0 29 C-1.65 29 -3.3 29 -5 29 C-5.33 22.4 -5.66 15.8 -6 9 C-6.33 9 -6.66 9 -7 9 C-7.59732819 6.23735711 -8 3.83967231 -8 1 C-3.375 -1.125 -3.375 -1.125 0 0 Z " fill="#51B2A8" transform="translate(402,198)"/>
<path d="M0 0 C1.32 0.33 2.64 0.66 4 1 C4 1.99 4 2.98 4 4 C4.99 4 5.98 4 7 4 C7 3.34 7 2.68 7 2 C8.65 1.34 10.3 0.68 12 0 C11.08552154 1.08518111 10.16829593 2.16804738 9.25 3.25 C8.43015625 4.21873047 8.43015625 4.21873047 7.59375 5.20703125 C6 7 6 7 3.75 8.9375 C1.10905401 12.05004349 0.72096197 15.00193818 0 19 C1.08552366 20.31262571 1.08552366 20.31262571 3.72265625 20.09765625 C4.82480469 20.08605469 5.92695313 20.07445312 7.0625 20.0625 C8.16722656 20.05347656 9.27195312 20.04445312 10.41015625 20.03515625 C11.26480469 20.02355469 12.11945313 20.01195312 13 20 C13.66 18.68 14.32 17.36 15 16 C15 17.98 15 19.96 15 22 C12.69 22 10.38 22 8 22 C8 26.62 8 31.24 8 36 C7.67 36 7.34 36 7 36 C7 31.38 7 26.76 7 22 C4.03 22 1.06 22 -2 22 C-2.25049421 19.45884191 -2.47583433 16.91944416 -2.6875 14.375 C-2.76033203 13.66214844 -2.83316406 12.94929687 -2.90820312 12.21484375 C-3.29192279 7.29420337 -2.65864697 4.33311615 0 0 Z " fill="#51BF9D" transform="translate(376,189)"/>
<path d="M0 0 C1.12921875 0.03351563 2.2584375 0.06703125 3.421875 0.1015625 C6.25 0.375 6.25 0.375 8.25 1.375 C8.25 20.845 8.25 40.315 8.25 60.375 C7.92 60.375 7.59 60.375 7.25 60.375 C7.23969254 59.67564835 7.22938507 58.97629669 7.21876526 58.25575256 C7.12094968 51.67786337 7.01845843 45.1000658 6.91066074 38.52233219 C6.85540198 35.14032878 6.80197744 31.75831676 6.75268555 28.3762207 C6.69599054 24.49160573 6.63142415 20.60714122 6.56640625 16.72265625 C6.54969376 15.50288589 6.53298126 14.28311554 6.51576233 13.02638245 C6.4858445 11.34475258 6.4858445 11.34475258 6.45532227 9.62915039 C6.43977798 8.63653702 6.4242337 7.64392365 6.40821838 6.62123108 C6.49881556 4.40525703 6.49881556 4.40525703 5.25 3.375 C0.30087105 2.60689519 -4.66861203 2.07368929 -9.04296875 4.80859375 C-11.13924838 6.88813662 -12.94715512 9.03617421 -14.75 11.375 C-15.46285156 12.261875 -16.17570313 13.14875 -16.91015625 14.0625 C-18.28894506 15.78410926 -19.65015779 17.52003435 -20.98828125 19.2734375 C-22.75 21.375 -22.75 21.375 -25.75 23.375 C-23.98279292 19.25494163 -21.24900723 15.93456148 -18.5 12.4375 C-18.03464844 11.82970703 -17.56929687 11.22191406 -17.08984375 10.59570312 C-12.25677121 4.42454852 -8.44384347 -0.36966135 0 0 Z " fill="#7ED4AD" transform="translate(226.75,184.625)"/>
<path d="M0 0 C2.64 0 5.28 0 8 0 C8.28875 0.825 8.5775 1.65 8.875 2.5 C10.99907157 6.81962632 14.79642874 9.24095669 18.546875 12.09765625 C21.28814309 14.22344854 23.6323822 16.47454102 26 19 C25.67 19.99 25.34 20.98 25 22 C23.3125 21.875 23.3125 21.875 21 21 C19.85482147 19.61904942 18.71503587 18.23310139 17.609375 16.8203125 C12.50654249 11.04866213 6.26552664 6.5271397 -1 4 C-0.67 2.68 -0.34 1.36 0 0 Z " fill="#E98E89" transform="translate(404,126)"/>
<path d="M0 0 C3.60231897 7.20463793 3.27136085 15.14713938 3.60546875 23.06054688 C3.80894181 27.44925019 4.15887433 31.67521219 5 36 C0.13948404 38.59227518 -4.65271133 38.18689553 -10 38 C-9.67 37.34 -9.34 36.68 -9 36 C-6.03 36 -3.06 36 0 36 C0 24.12 0 12.24 0 0 Z " fill="#F66E67" transform="translate(401,77)"/>
<path d="M0 0 C0.66 0.33 1.32 0.66 2 1 C1.83757812 1.50015625 1.67515625 2.0003125 1.5078125 2.515625 C0.81073113 5.92596156 0.85195961 9.28535063 0.875 12.75 C0.87910889 13.49572266 0.88321777 14.24144531 0.88745117 15.00976562 C0.78579796 30.41066253 0.78579796 30.41066253 4.3671875 45.2265625 C5.18806569 47.5270483 5.23396187 49.58239403 5 52 C4.525625 51.34 4.05125 50.68 3.5625 50 C3.046875 49.34 2.53125 48.68 2 48 C1.67 48 1.34 48 1 48 C0.68080061 46.68911318 0.37014053 45.37614752 0.0625 44.0625 C-0.11152344 43.33160156 -0.28554688 42.60070312 -0.46484375 41.84765625 C-1.95446428 33.92113534 -2.34219673 25.85418149 -2.75 17.8125 C-2.81832031 16.75869141 -2.88664062 15.70488281 -2.95703125 14.61914062 C-3.2417664 8.82587539 -3.273592 4.88507673 0 0 Z " fill="#3F918D" transform="translate(371,186)"/>
<path d="M0 0 C2.25245881 2.68841859 3.88213958 4.64641875 5 8 C4.01 8 3.02 8 2 8 C1.67 7.01 1.34 6.02 1 5 C0.01 4.67 -0.98 4.34 -2 4 C-2.144375 4.61875 -2.28875 5.2375 -2.4375 5.875 C-3 8 -3 8 -4 10 C-3.9924692 11.99970182 -3.91709957 13.99932372 -3.80859375 15.99609375 C-3.72254883 17.79336914 -3.72254883 17.79336914 -3.63476562 19.62695312 C-3.50344628 22.16362689 -3.36804118 24.7000925 -3.22851562 27.23632812 C-3.17244141 28.43580078 -3.11636719 29.63527344 -3.05859375 30.87109375 C-2.99986084 31.97380615 -2.94112793 33.07651855 -2.88061523 34.21264648 C-3 37 -3 37 -5 40 C-7.67486143 37.32513857 -6.72112327 29.0758524 -6.88720703 25.33300781 C-6.96231337 23.77950963 -7.05180639 22.22663936 -7.15576172 20.67480469 C-8.02344933 7.57355335 -8.02344933 7.57355335 -5.4375 3.59765625 C-3.68279015 2.09412463 -2.08881574 0.97513592 0 0 Z " fill="#4CA49E" transform="translate(378,185)"/>
<path d="M0 0 C1.13598633 0.00483398 1.13598633 0.00483398 2.29492188 0.00976562 C3.47344727 0.02233398 3.47344727 0.02233398 4.67578125 0.03515625 C5.47306641 0.03966797 6.27035156 0.04417969 7.09179688 0.04882812 C9.05732382 0.06059775 11.0228121 0.07853277 12.98828125 0.09765625 C12.98828125 0.42765625 12.98828125 0.75765625 12.98828125 1.09765625 C3.58328125 1.59265625 3.58328125 1.59265625 -6.01171875 2.09765625 C-6.01171875 9.35765625 -6.01171875 16.61765625 -6.01171875 24.09765625 C-4.36171875 24.09765625 -2.71171875 24.09765625 -1.01171875 24.09765625 C-0.68171875 25.41765625 -0.35171875 26.73765625 -0.01171875 28.09765625 C-2.32171875 29.41765625 -4.63171875 30.73765625 -7.01171875 32.09765625 C-8.38434151 29.35241073 -8.14140685 27.1354633 -8.14453125 24.06640625 C-8.14582031 22.86371094 -8.14710938 21.66101563 -8.1484375 20.421875 C-8.14457031 19.15988281 -8.14070313 17.89789063 -8.13671875 16.59765625 C-8.14058594 15.33566406 -8.14445312 14.07367188 -8.1484375 12.7734375 C-8.14714844 11.57074219 -8.14585937 10.36804688 -8.14453125 9.12890625 C-8.14340332 8.02095703 -8.14227539 6.91300781 -8.14111328 5.77148438 C-8.01171875 3.09765625 -8.01171875 3.09765625 -7.01171875 1.09765625 C-4.30455633 0.19526878 -2.77395107 -0.02085677 0 0 Z " fill="#407B72" transform="translate(389.01171875,159.90234375)"/>
<path d="M0 0 C6.93 0 13.86 0 21 0 C21 2.97 21 5.94 21 9 C8.23966572 9.36285311 -4.30887266 8.24380656 -17 7 C-17 6.67 -17 6.34 -17 6 C-8.75 6 -0.5 6 8 6 C8 6.66 8 7.32 8 8 C8.515625 7.835 9.03125 7.67 9.5625 7.5 C12.73363876 6.84951 15.77218334 6.9379266 19 7 C18.505 4.525 18.505 4.525 18 2 C17.05640625 2.01740234 17.05640625 2.01740234 16.09375 2.03515625 C10.61930912 2.09286873 5.41542194 1.80228473 0 1 C0 0.67 0 0.34 0 0 Z " fill="#DB867F" transform="translate(330,118)"/>
<path d="M0 0 C1 3 1 3 0.21484375 4.65625 C-0.20667969 5.2646875 -0.62820313 5.873125 -1.0625 6.5 C-4.37657225 11.48972675 -7.17642208 16.72155881 -10 22 C-11.32 21.67 -12.64 21.34 -14 21 C-14.24286522 17.44988193 -14.11094495 14.39730935 -13 11 C-10.64007162 8.75385388 -8.2590321 7.20276206 -5.4453125 5.5703125 C-2.94036459 3.96170378 -1.61571633 2.47172498 0 0 Z " fill="#F2F1E8" transform="translate(434,270)"/>
<path d="M0 0 C2.33944736 0.28730055 4.6739143 0.61936779 7 1 C7.84080847 7.84658325 7.84080847 7.84658325 5.4765625 11.08984375 C0.55636503 16 0.55636503 16 -1 16 C-1.02685095 13.52076199 -1.04676547 11.0418116 -1.0625 8.5625 C-1.07506836 7.50192383 -1.07506836 7.50192383 -1.08789062 6.41992188 C-1.09653588 4.61306441 -1.05220011 2.80612397 -1 1 C-0.67 0.67 -0.34 0.34 0 0 Z " fill="#F2D0C3" transform="translate(313,207)"/>
<path d="M0 0 C0 0.66 0 1.32 0 2 C-0.78375 2.12375 -1.5675 2.2475 -2.375 2.375 C-5.14057822 2.79117993 -5.14057822 2.79117993 -7 5 C-7.06169567 7.56183931 -7.00030731 9.9562808 -6.8125 12.5 C-6.78091797 13.18964844 -6.74933594 13.87929687 -6.71679688 14.58984375 C-6.59976617 16.83843185 -6.59976617 16.83843185 -6 20 C-5.01 20.66 -4.02 21.32 -3 22 C-2.67 22.66 -2.34 23.32 -2 24 C-1.01 24.33 -0.02 24.66 1 25 C-0.65 25.66 -2.3 26.32 -4 27 C-4.33 25.68 -4.66 24.36 -5 23 C-6.65 23 -8.3 23 -10 23 C-10 15.74 -10 8.48 -10 1 C-3 0 -3 0 0 0 Z " fill="#53A19D" transform="translate(393,161)"/>
<path d="M0 0 C0.66 0 1.32 0 2 0 C2 3.3 2 6.6 2 10 C3.588125 10.04125 5.17625 10.0825 6.8125 10.125 C14.69687452 10.83805713 21.28107757 14.09138531 26.6875 19.875 C27.120625 20.57625 27.55375 21.2775 28 22 C27.67 22.66 27.34 23.32 27 24 C26.2575 23.030625 25.515 22.06125 24.75 21.0625 C23.02690085 18.97612639 22.26131306 18.09887521 19.6875 17.125 C19.130625 17.08375 18.57375 17.0425 18 17 C18 16.34 18 15.68 18 15 C7.52244037 11.9755498 -1.26875487 11.41018591 -12 13 C-7.82050327 10.21366885 -5.06624674 9 0 9 C0 6.03 0 3.06 0 0 Z " fill="#6DD2A9" transform="translate(405,174)"/>
<path d="M0 0 C0.33 0.99 0.66 1.98 1 3 C-8.33333333 12.33333333 -17.66666667 21.66666667 -27 31 C-27.66 30.34 -28.32 29.68 -29 29 C-19.43 19.43 -9.86 9.86 0 0 Z " fill="#DBC8BE" transform="translate(318,226)"/>
<path d="M0 0 C3.08593107 0.24362614 4.61977139 0.65656771 6.9375 2.75 C8 5 8 5 7.1875 7.75 C6.795625 8.4925 6.40375 9.235 6 10 C2.7 10 -0.6 10 -4 10 C-1.125 1.125 -1.125 1.125 0 0 Z " fill="#FB958E" transform="translate(380,107)"/>
<path d="M0 0 C0.33 0 0.66 0 1 0 C1 6.93 1 13.86 1 21 C-8 22 -8 22 -10.5625 20.0625 C-11.036875 19.381875 -11.51125 18.70125 -12 18 C-11.505 16.515 -11.505 16.515 -11 15 C-10.67 15.66 -10.34 16.32 -10 17 C-7.47266765 17.65555119 -7.47266765 17.65555119 -5 18 C-5 16.68 -5 15.36 -5 14 C-3.35 13.34 -1.7 12.68 0 12 C-0.185625 11.505 -0.37125 11.01 -0.5625 10.5 C-1.20139296 6.84918311 -0.54905291 3.66035276 0 0 Z " fill="#CF1E35" transform="translate(400,92)"/>
<path d="M0 0 C3.73869347 2.4120603 3.73869347 2.4120603 4.75 4.6875 C5.2424499 9.24266156 5.46475146 13.60574561 4 18 C4.66 18.33 5.32 18.66 6 19 C5.5359375 19.8971875 5.5359375 19.8971875 5.0625 20.8125 C3.89790296 23.08956772 3.89790296 23.08956772 3 26 C4.65 26 6.3 26 8 26 C8 26.33 8 26.66 8 27 C5.36 27 2.72 27 0 27 C0.66 19.41 1.32 11.82 2 4 C1.34 4 0.68 4 0 4 C0 2.68 0 1.36 0 0 Z " fill="#E67E54" transform="translate(368,133)"/>
<path d="M0 0 C0.33 0.99 0.66 1.98 1 3 C1.66 3 2.32 3 3 3 C3 3.66 3 4.32 3 5 C-0.3 4.67 -3.6 4.34 -7 4 C-7.33 5.32 -7.66 6.64 -8 8 C-7.01 8.33 -6.02 8.66 -5 9 C-5.99 9.33 -6.98 9.66 -8 10 C-10.10254829 14.58104891 -10.24975163 18.92331998 -10.125 23.875 C-10.11597656 24.56335938 -10.10695313 25.25171875 -10.09765625 25.9609375 C-10.07432513 27.64077838 -10.03846326 29.32043746 -10 31 C-12.47521763 28.52478237 -12.28150905 27.02740083 -12.32910156 23.64135742 C-12.32362305 22.93470947 -12.31814453 22.22806152 -12.3125 21.5 C-12.30831055 20.78110596 -12.30412109 20.06221191 -12.29980469 19.3215332 C-12.18097504 13.68534198 -11.74902738 8.03646435 -9 3 C-5.92316611 0.22092423 -4.14242982 -0.34520249 0 0 Z " fill="#F6D69B" transform="translate(411,122)"/>
<path d="M0 0 C6.75 -0.125 6.75 -0.125 9 1 C9.28875 1.78375 9.5775 2.5675 9.875 3.375 C11.1533936 6.35791841 12.41001919 7.1619491 15 9 C15.33 9.99 15.66 10.98 16 12 C19.35276343 14.32114391 23.02418958 14.54125264 27 15 C27 15.33 27 15.66 27 16 C20.41331085 16.47903194 15.7134382 15.38142261 10 12 C7.05084387 9.14597794 6.15175548 5.89824931 5 2 C3.35 1.67 1.7 1.34 0 1 C0 0.67 0 0.34 0 0 Z " fill="#2A8278" transform="translate(383,256)"/>
<path d="M0 0 C4.95 1.32 9.9 2.64 15 4 C15 4.33 15 4.66 15 5 C10.126739 6.5912689 6.19209404 7.21192221 1 7 C1.061875 8.918125 1.061875 8.918125 1.125 10.875 C1.1953125 13.0546875 1.1953125 13.0546875 1 15 C0.34 15.66 -0.32 16.32 -1 17 C-1.02721176 15.10424749 -1.04649136 13.20838021 -1.0625 11.3125 C-1.07410156 10.25675781 -1.08570313 9.20101563 -1.09765625 8.11328125 C-1 5 -1 5 0 0 Z " fill="#8E7E78" transform="translate(385,279)"/>
<path d="M0 0 C1.4606285 2.64738916 2 3.89448334 2 7 C2.66 7 3.32 7 4 7 C5.12520495 18.01093413 5.09920291 28.94438708 5 40 C2.99309384 36.98964075 2.74535006 36.32330247 2.65625 32.9375 C2.62781006 32.14569336 2.59937012 31.35388672 2.57006836 30.53808594 C2.5469458 29.70051758 2.52382324 28.86294922 2.5 28 C2.2548027 21.60197711 1.73269181 15.52568854 0.41015625 9.24609375 C-0.16268223 6.10912115 -0.14127839 3.17876379 0 0 Z " fill="#FAA288" transform="translate(401,70)"/>
<path d="M0 0 C4.554787 3.80014774 8.95279259 7.65665546 13 12 C13 12.66 13 13.32 13 14 C13.66 14 14.32 14 15 14 C18.5711885 16.90159066 19.80086322 19.60316512 21 24 C19.35 23.67 17.7 23.34 16 23 C15.896875 22.38125 15.79375 21.7625 15.6875 21.125 C15.12474627 18.63473516 15.12474627 18.63473516 12 17 C12 16.34 12 15.68 12 15 C11.01 14.67 10.02 14.34 9 14 C7.97862543 12.34634594 6.98387706 10.67623498 6 9 C4.44285665 7.14340601 2.83911395 5.34170412 1.20703125 3.55078125 C0 2 0 2 0 0 Z " fill="#5BB6B1" transform="translate(389,244)"/>
<path d="M0 0 C0.66 0 1.32 0 2 0 C2.36633544 7.44882063 2.3692885 16.01456847 -2.6875 21.99609375 C-5.00569325 24.01002414 -7.25431942 25.62715971 -10 27 C-10.65772428 30.02934491 -10.65772428 30.02934491 -11 33 C-11.66 32.67 -12.32 32.34 -13 32 C-13 29.69 -13 27.38 -13 25 C-12.2575 24.731875 -11.515 24.46375 -10.75 24.1875 C-7.01157809 22.61350376 -7.01157809 22.61350376 -4 20 C-3.29075116 17.66538923 -2.81069847 15.36459488 -2.39453125 12.9609375 C-2 11 -2 11 -1 10 C-0.76712992 8.31816052 -0.58735834 6.6287584 -0.4375 4.9375 C-0.35371094 4.01839844 -0.26992188 3.09929687 -0.18359375 2.15234375 C-0.12300781 1.44207031 -0.06242187 0.73179688 0 0 Z " fill="#D15057" transform="translate(399,74)"/>
<path d="M0 0 C0.7115625 0.72445312 1.423125 1.44890625 2.15625 2.1953125 C4.8594906 4.86142067 7.6492365 7.36857029 10.5 9.875 C14.68026353 13.65472546 18.08656487 17.17776255 21 22 C21 22.66 21 23.32 21 24 C20.34 24 19.68 24 19 24 C14.26923077 18.80769231 14.26923077 18.80769231 13 15 C10.49552484 13.78130071 10.49552484 13.78130071 8 13 C8 12.34 8 11.68 8 11 C7.01 10.67 6.02 10.34 5 10 C0 4.76744186 0 4.76744186 0 0 Z " fill="#E8E2D3" transform="translate(416,121)"/>
<path d="M0 0 C1.98 0 3.96 0 6 0 C5.67 0.680625 5.34 1.36125 5 2.0625 C3.4679225 6.56297767 3.50062502 10.50187505 5 15 C4.5625 17.6875 4.5625 17.6875 4 20 C0.96722067 17.09908064 0.02477146 15.88186406 -0.09765625 11.5234375 C-0.09100795 10.14059133 -0.07908295 8.75776272 -0.0625 7.375 C-0.05798828 6.66859375 -0.05347656 5.9621875 -0.04882812 5.234375 C-0.03703875 3.48954725 -0.01910324 1.744763 0 0 Z " fill="#196C69" transform="translate(384,211)"/>
<path d="M0 0 C1.74627478 2.61941217 2.38722388 4.03824877 3 7 C3.66 7 4.32 7 5 7 C4.67 7.99 4.34 8.98 4 10 C3.67 9.67 3.34 9.34 3 9 C1.50070956 8.95386799 -0.00048046 8.96203748 -1.5 9 C-2.99951954 9.03796252 -4.50070956 9.04613201 -6 9 C-7 8 -7 8 -7.0625 5.4375 C-7.041875 4.633125 -7.02125 3.82875 -7 3 C-4.69 3 -2.38 3 0 3 C0 2.01 0 1.02 0 0 Z " fill="#D0ACA2" transform="translate(395,286)"/>
<path d="M0 0 C0.33 0 0.66 0 1 0 C1.79320525 4.26241969 2.17731495 8.37923686 2.31640625 12.7109375 C2.37924805 14.57685547 2.37924805 14.57685547 2.44335938 16.48046875 C2.48267578 17.76566406 2.52199219 19.05085938 2.5625 20.375 C2.60568359 21.68339844 2.64886719 22.99179688 2.69335938 24.33984375 C2.79912429 27.55979797 2.90121579 30.77982531 3 34 C2.01 34 1.02 34 0 34 C-0.66 33.01 -1.32 32.02 -2 31 C-1.34 31 -0.68 31 0 31 C-0.33 28.69 -0.66 26.38 -1 24 C-0.34 24 0.32 24 1 24 C0.93417725 23.30849854 0.86835449 22.61699707 0.80053711 21.90454102 C0.50729345 18.79102193 0.2222888 15.67680332 -0.0625 12.5625 C-0.16626953 11.47388672 -0.27003906 10.38527344 -0.37695312 9.26367188 C-0.47041016 8.22919922 -0.56386719 7.19472656 -0.66015625 6.12890625 C-0.74918213 5.17056885 -0.83820801 4.21223145 -0.92993164 3.22485352 C-0.9530542 2.49065186 -0.97617676 1.7564502 -1 1 C-0.67 0.67 -0.34 0.34 0 0 Z " fill="#35948E" transform="translate(392,204)"/>
<path d="M0 0 C1.65 0 3.3 0 5 0 C7.09350689 3.4019487 7.17942163 6.05272412 7 10 C4.69 10 2.38 10 0 10 C0 6.7 0 3.4 0 0 Z " fill="#FA9770" transform="translate(351,116)"/>
<path d="M0 0 C0.33 0 0.66 0 1 0 C1.47918877 4.19766319 1.94259841 8.39668256 2.39160156 12.59765625 C2.54647528 14.02586413 2.70561596 15.45361612 2.86914062 16.88085938 C3.10375216 18.93514087 3.3228569 20.99058502 3.5390625 23.046875 C3.67521973 24.28276367 3.81137695 25.51865234 3.95166016 26.79199219 C3.99931747 29.954705 3.71019344 31.39777876 2 34 C-2.45234143 25.09531715 -0.10053027 9.85196635 0 0 Z " fill="#FC696C" transform="translate(359,81)"/>
<path d="M0 0 C1.32 0.33 2.64 0.66 4 1 C4 1.99 4 2.98 4 4 C4.66 4.33 5.32 4.66 6 5 C5.21625 5.556875 4.4325 6.11375 3.625 6.6875 C0.91295142 9.07668565 0.03866457 10.60073413 -1 14 C-1.66 13.67 -2.32 13.34 -3 13 C-3.31563182 7.73946963 -2.66590937 4.55426184 0 0 Z " fill="#59B4AF" transform="translate(376,189)"/>
<path d="M0 0 C0.99 0.33 1.98 0.66 3 1 C2.34 1 1.68 1 1 1 C1 2.98 1 4.96 1 7 C2.98 7 4.96 7 7 7 C7.33 7.99 7.66 8.98 8 10 C7.01 10.495 7.01 10.495 6 11 C6 12.65 6 14.3 6 16 C5.01 16 4.02 16 3 16 C3 14.35 3 12.7 3 11 C1.35 11.33 -0.3 11.66 -2 12 C-1.85904936 10.3745692 -1.71207913 8.74965949 -1.5625 7.125 C-1.48128906 6.22007813 -1.40007812 5.31515625 -1.31640625 4.3828125 C-1 2 -1 2 0 0 Z " fill="#F57069" transform="translate(365,67)"/>
<path d="M0 0 C3.3985407 1.1328469 4.73413495 2.26533528 7 5 C7 6.32 7 7.64 7 9 C9.97 9 12.94 9 16 9 C16 9.99 16 10.98 16 12 C9.6 13.23076923 9.6 13.23076923 6.5625 12.0625 C6.046875 11.711875 5.53125 11.36125 5 11 C5 10.34 5 9.68 5 9 C4.34 9 3.68 9 3 9 C2.87625 8.360625 2.7525 7.72125 2.625 7.0625 C2.315625 6.0415625 2.315625 6.0415625 2 5 C1.34 4.67 0.68 4.34 0 4 C0 2.68 0 1.36 0 0 Z " fill="#4BA39D" transform="translate(398,258)"/>
<path d="M0 0 C1.30962018 2.51850035 2.46456698 5.07183605 3.5625 7.6875 C4.66827523 10.79066408 4.66827523 10.79066408 6 12 C6.07205511 13.68608966 6.08386068 15.37500659 6.0625 17.0625 C6.05347656 17.98160156 6.04445313 18.90070313 6.03515625 19.84765625 C6.02355469 20.55792969 6.01195312 21.26820313 6 22 C5.34 22 4.68 22 4 22 C3.67 19.69 3.34 17.38 3 15 C2.01 15 1.02 15 0 15 C-0.19448477 12.87562788 -0.38038289 10.75046809 -0.5625 8.625 C-0.66691406 7.44164062 -0.77132813 6.25828125 -0.87890625 5.0390625 C-1 2 -1 2 0 0 Z " fill="#2F6E6C" transform="translate(369,228)"/>
<path d="M0 0 C2 2 2 2 2.15112305 4.35083008 C2.10511963 5.31400146 2.05911621 6.27717285 2.01171875 7.26953125 C1.96466797 8.32333984 1.91761719 9.37714844 1.86914062 10.46289062 C1.80919922 11.56826172 1.74925781 12.67363281 1.6875 13.8125 C1.63916016 14.90626953 1.59082031 16.00003906 1.54101562 17.12695312 C1.31329264 21.8572496 1.02738972 26.36699421 0 31 C-0.66 31 -1.32 31 -2 31 C-2.02684312 28.18743719 -2.04676188 25.37512759 -2.0625 22.5625 C-2.07087891 21.76005859 -2.07925781 20.95761719 -2.08789062 20.13085938 C-2.0965143 18.08704779 -2.0522815 16.04316098 -2 14 C-1.67 13.67 -1.34 13.34 -1 13 C-0.76518307 10.81707226 -0.58636677 8.62796826 -0.4375 6.4375 C-0.35371094 5.23996094 -0.26992188 4.04242188 -0.18359375 2.80859375 C-0.12300781 1.88175781 -0.06242187 0.95492187 0 0 Z " fill="#316762" transform="translate(364,179)"/>
<path d="M0 0 C-0.13277344 0.556875 -0.26554687 1.11375 -0.40234375 1.6875 C-1.58220305 6.7858701 -2.43249539 11.79787441 -3 17 C0.18490007 17.2773501 0.18490007 17.2773501 3 15 C2.67 16.65 2.34 18.3 2 20 C-1 21 -1 21 -3.1875 20.0625 C-5.46529607 17.47052516 -5.43636078 15.58455621 -5.2734375 12.20703125 C-4.8380144 8.69254479 -3.97263135 5.40420974 -3 2 C-4.65 2 -6.3 2 -8 2 C-8 1.67 -8 1.34 -8 1 C-5.23735711 0.40267181 -2.83967231 0 0 0 Z " fill="#A6817D" transform="translate(419,282)"/>
<path d="M0 0 C5.66818182 1.84545455 5.66818182 1.84545455 8.28125 3.0625 C11.59145459 4.20394986 14.31985242 4.19555854 17.8125 4.125 C18.97394531 4.10695313 20.13539063 4.08890625 21.33203125 4.0703125 C22.65267578 4.03550781 22.65267578 4.03550781 24 4 C23.67 4.66 23.34 5.32 23 6 C16.82240117 7.09378932 9.30593102 8.37689901 3.625 5.25 C1 3 1 3 0 0 Z " fill="#F07A7C" transform="translate(367,93)"/>
<path d="M0 0 C0.66 0.33 1.32 0.66 2 1 C-0.19855018 8.75958885 -3.77245623 15.15485378 -8 22 C-8.66 21.01 -9.32 20.02 -10 19 C-6.7 12.73 -3.4 6.46 0 0 Z " fill="#D59595" transform="translate(431,277)"/>
<path d="M0 0 C2.04119788 1.61594832 4.04072937 3.2856382 6 5 C6 5.66 6 6.32 6 7 C6.70125 7.185625 7.4025 7.37125 8.125 7.5625 C12.09640051 9.54820026 14.3073418 12.53933276 17 16 C16.67 16.66 16.34 17.32 16 18 C14 16.625 14 16.625 12 15 C12 14.34 12 13.68 12 13 C11.4225 12.731875 10.845 12.46375 10.25 12.1875 C7.94449957 10.97070811 5.97943808 9.69666121 4 8 C4 7.34 4 6.68 4 6 C2.68 5.34 1.36 4.68 0 4 C0 2.68 0 1.36 0 0 Z " fill="#FAA7A0" transform="translate(413,127)"/>
<path d="M0 0 C1.98 0 3.96 0 6 0 C6 3.63 6 7.26 6 11 C3.69 9.02 1.38 7.04 -1 5 C-0.67 3.35 -0.34 1.7 0 0 Z " fill="#5EBCB3" transform="translate(399,240)"/>
<path d="M0 0 C0.99 0.33 1.98 0.66 3 1 C3 2.32 3 3.64 3 5 C3.66 5 4.32 5 5 5 C5.66 6.98 6.32 8.96 7 11 C6.01 11.33 5.02 11.66 4 12 C4 11.34 4 10.68 4 10 C2.68 10 1.36 10 0 10 C-0.19412181 8.52168779 -0.38012131 7.04230684 -0.5625 5.5625 C-0.66691406 4.73878906 -0.77132813 3.91507813 -0.87890625 3.06640625 C-0.91886719 2.38449219 -0.95882813 1.70257813 -1 1 C-0.67 0.67 -0.34 0.34 0 0 Z " fill="#B39791" transform="translate(405,164)"/>
<path d="M0 0 C0.99 0 1.98 0 3 0 C3.66 5.94 4.32 11.88 5 18 C4.01 16.68 3.02 15.36 2 14 C1.01 14.495 1.01 14.495 0 15 C0 10.05 0 5.1 0 0 Z " fill="#59B5AE" transform="translate(374,211)"/>
<path d="M0 0 C10.55808656 0.96355353 10.55808656 0.96355353 15 2 C15 2.33 15 2.66 15 3 C14.04287109 3.07347656 14.04287109 3.07347656 13.06640625 3.1484375 C12.24011719 3.22320312 11.41382813 3.29796875 10.5625 3.375 C9.32693359 3.47941406 9.32693359 3.47941406 8.06640625 3.5859375 C7.04353516 3.79089844 7.04353516 3.79089844 6 4 C5.67 4.66 5.34 5.32 5 6 C1.9375 6.625 1.9375 6.625 -1 7 C-0.67 4.69 -0.34 2.38 0 0 Z " fill="#FE9B8E" transform="translate(366,68)"/>
<path d="M0 0 C0.66 0 1.32 0 2 0 C1.67854004 0.52561523 1.35708008 1.05123047 1.02587891 1.59277344 C-0.28105216 4.65948937 -0.323235 7.18528344 -0.4140625 10.515625 C-0.45273437 11.76601562 -0.49140625 13.01640625 -0.53125 14.3046875 C-0.5621875 15.60664063 -0.593125 16.90859375 -0.625 18.25 C-0.66367187 19.56742188 -0.70234375 20.88484375 -0.7421875 22.2421875 C-0.83646182 25.49465161 -0.9220675 28.74710996 -1 32 C-0.01 32.33 0.98 32.66 2 33 C0.68 33.99 -0.64 34.98 -2 36 C-2.04944066 31.35524041 -2.08573863 26.71063404 -2.10986328 22.06567383 C-2.11992041 20.48556856 -2.13356785 18.9054819 -2.15087891 17.32543945 C-2.17514022 15.0541525 -2.18648582 12.78311164 -2.1953125 10.51171875 C-2.20563507 9.80536789 -2.21595764 9.09901703 -2.22659302 8.3712616 C-2.22743775 4.67802208 -2.10720523 3.16080784 0 0 Z " fill="#EAD5C9" transform="translate(290,211)"/>
<path d="M0 0 C0.33 0 0.66 0 1 0 C1 6.6 1 13.2 1 20 C1.99 19.67 2.98 19.34 4 19 C7 21 7 21 8 23 C8.99 23.33 9.98 23.66 11 24 C9.35 24.66 7.7 25.32 6 26 C5.67 24.68 5.34 23.36 5 22 C3.35 22 1.7 22 0 22 C0 14.74 0 7.48 0 0 Z " fill="#42928D" transform="translate(383,162)"/>
<path d="M0 0 C5.52068474 1.34950071 5.52068474 1.34950071 7.75 4.375 C8.36875 5.674375 8.36875 5.674375 9 7 C9.391875 7.763125 9.78375 8.52625 10.1875 9.3125 C10.455625 9.869375 10.72375 10.42625 11 11 C11.66 11 12.32 11 13 11 C12.38461538 16.53846154 12.38461538 16.53846154 10.4375 18.875 C9.7259375 19.431875 9.7259375 19.431875 9 20 C9 18.68 9 17.36 9 16 C9.66 16 10.32 16 11 16 C9.72681234 10.90724936 8.10615832 9.12850158 4 6 C2.60644236 4.04148656 1.25717453 2.04872887 0 0 Z " fill="#F9D5C8" transform="translate(424,134)"/>
<path d="M0 0 C0.99 0.33 1.98 0.66 3 1 C3.6875 3.0625 3.6875 3.0625 4 5 C4.515625 4.7525 5.03125 4.505 5.5625 4.25 C9.46522651 3.84972036 11.74166065 5.93220772 15 8 C15 8.33 15 8.66 15 9 C10.21600972 9.38271922 6.8473843 9.40139256 2.4375 7.3125 C0 5 0 5 -0.375 2.25 C-0.25125 1.5075 -0.1275 0.765 0 0 Z " fill="#FA9C68" transform="translate(369,129)"/>
<path d="M0 0 C1.77074917 -0.02705729 3.54161711 -0.04642195 5.3125 -0.0625 C6.29863281 -0.07410156 7.28476562 -0.08570312 8.30078125 -0.09765625 C11.62976757 0.02278464 13.40694394 0.38576336 15.75 2.8125 C17 5 17 5 16.6875 7.25 C16.460625 7.8275 16.23375 8.405 16 9 C16 8.34 16 7.68 16 7 C13.525 6.01 13.525 6.01 11 5 C11 4.34 11 3.68 11 3 C7.27569643 2.30710631 3.78916254 1.88855404 0 2 C0 1.34 0 0.68 0 0 Z " fill="#D6754E" transform="translate(351,128)"/>
<path d="M0 0 C2.64 0 5.28 0 8 0 C8.625 1.875 8.625 1.875 9 4 C8.34 4.66 7.68 5.32 7 6 C5.0546875 5.7578125 5.0546875 5.7578125 2.875 5.125 C1.78832031 4.81949219 1.78832031 4.81949219 0.6796875 4.5078125 C0.12539063 4.34023437 -0.42890625 4.17265625 -1 4 C-0.67 2.68 -0.34 1.36 0 0 Z " fill="#F0966C" transform="translate(404,126)"/>
<path d="M0 0 C5.625 -0.25 5.625 -0.25 9 2 C11.02542148 2.36351504 11.02542148 2.36351504 13.23046875 2.4140625 C14.03291016 2.45273438 14.83535156 2.49140625 15.66210938 2.53125 C16.91217773 2.57765625 16.91217773 2.57765625 18.1875 2.625 C19.03248047 2.66367188 19.87746094 2.70234375 20.74804688 2.7421875 C22.83167524 2.83636279 24.91580753 2.91926675 27 3 C27 3.33 27 3.66 27 4 C23.77085248 4.02917228 20.54173917 4.04685663 17.3125 4.0625 C15.94448242 4.07506836 15.94448242 4.07506836 14.54882812 4.08789062 C13.66259766 4.09111328 12.77636719 4.09433594 11.86328125 4.09765625 C11.05157471 4.10289307 10.23986816 4.10812988 9.40356445 4.11352539 C6.85135327 3.9929791 4.48973863 3.559949 2 3 C1.67 4.65 1.34 6.3 1 8 C0.67 8 0.34 8 0 8 C0 5.36 0 2.72 0 0 Z " fill="#FCAF81" transform="translate(364,115)"/>
<path d="M0 0 C0.33 0.99 0.66 1.98 1 3 C-2.50345348 6.27458466 -5.42296175 6.49477454 -10.125 6.75 C-11.98511719 6.86601563 -11.98511719 6.86601563 -13.8828125 6.984375 C-17 7 -17 7 -19 6 C-19 5.34 -19 4.68 -19 4 C-17.79601562 3.96261719 -16.59203125 3.92523438 -15.3515625 3.88671875 C-13.77600989 3.82107072 -12.20049046 3.75462299 -10.625 3.6875 C-9.8309375 3.66494141 -9.036875 3.64238281 -8.21875 3.61914062 C-6.13784419 3.52214925 -4.06558668 3.27005175 -2 3 C-1.34 2.01 -0.68 1.02 0 0 Z " fill="#F78F8B" transform="translate(395,91)"/>
<path d="M0 0 C0.66 0.33 1.32 0.66 2 1 C1.36191406 1.77085937 0.72382813 2.54171875 0.06640625 3.3359375 C-1.17302734 4.84027344 -1.17302734 4.84027344 -2.4375 6.375 C-3.26121094 7.37273437 -4.08492187 8.37046875 -4.93359375 9.3984375 C-7.80177452 13.00941744 -8.19256297 15.08005936 -8.5625 19.625 C-8.64628906 20.62789062 -8.73007813 21.63078125 -8.81640625 22.6640625 C-8.87699219 23.43492187 -8.93757812 24.20578125 -9 25 C-9.33 25 -9.66 25 -10 25 C-10.77060809 19.01589519 -11.21927537 14.02970642 -8.03125 8.72265625 C-5.78761353 6.02106234 -3.49425869 3.47068347 -1 1 C-0.67 0.67 -0.34 0.34 0 0 Z " fill="#B8EFDD" transform="translate(177,234)"/>
<path d="M0 0 C4.86045979 0.45213579 7.53141261 1.53141261 11 5 C12.51757269 7.75922307 13.1307064 9.19397722 12.625 12.3125 C12.41875 12.869375 12.2125 13.42625 12 14 C9 9.25 9 9.25 9 7 C8.01 6.67 7.02 6.34 6 6 C5.3125 3.9375 5.3125 3.9375 5 2 C3.35 1.67 1.7 1.34 0 1 C0 0.67 0 0.34 0 0 Z " fill="#F6A993" transform="translate(388,55)"/>
<path d="M0 0 C0.99 0.33 1.98 0.66 3 1 C2.23816406 1.85271484 2.23816406 1.85271484 1.4609375 2.72265625 C-2.74420802 7.43966405 -6.90435493 12.18761705 -11 17 C-11 13.62270847 -10.62588793 13.16161118 -8.59375 10.64453125 C-8.09746094 10.02255859 -7.60117188 9.40058594 -7.08984375 8.75976562 C-6.56519531 8.11716797 -6.04054687 7.47457031 -5.5 6.8125 C-4.71302734 5.83120117 -4.71302734 5.83120117 -3.91015625 4.83007812 C-2.61324419 3.2148331 -1.30745336 1.60672434 0 0 Z " fill="#64D19D" transform="translate(213,191)"/>
<path d="M0 0 C4.95 0 9.9 0 15 0 C15 0.66 15 1.32 15 2 C14.18015625 2.04898438 13.3603125 2.09796875 12.515625 2.1484375 C11.43796875 2.22320312 10.3603125 2.29796875 9.25 2.375 C7.64898437 2.47941406 7.64898437 2.47941406 6.015625 2.5859375 C3.19793568 2.9728223 1.4169634 3.55686166 -1 5 C-0.67 3.35 -0.34 1.7 0 0 Z " fill="#485448" transform="translate(367,161)"/>
<path d="M0 0 C2 2 2 2 2 7 C-3.94 7 -9.88 7 -16 7 C-16 6.67 -16 6.34 -16 6 C-10.72 5.34 -5.44 4.68 0 4 C0 2.68 0 1.36 0 0 Z " fill="#E3D49F" transform="translate(401,153)"/>
<path d="M0 0 C0.33 0 0.66 0 1 0 C1.3125 2.7265625 1.3125 2.7265625 1 6 C-1.1875 8.3359375 -1.1875 8.3359375 -4 10.375 C-5.3921875 11.40753906 -5.3921875 11.40753906 -6.8125 12.4609375 C-7.534375 12.96882812 -8.25625 13.47671875 -9 14 C-9.66 13.34 -10.32 12.68 -11 12 C-7.25 9 -7.25 9 -5 9 C-4.67 7.35 -4.34 5.7 -4 4 C-3.01 3.67 -2.02 3.34 -1 3 C-0.67 2.01 -0.34 1.02 0 0 Z " fill="#FCB3A7" transform="translate(430,144)"/>
<path d="M0 0 C0.66 0 1.32 0 2 0 C2.226875 1.216875 2.45375 2.43375 2.6875 3.6875 C3.7524753 8.00064995 5.6434705 10.05280337 9 13 C10.02813611 14.31175986 11.04084432 15.6369893 12 17 C9.10165652 16.65901841 7.48063318 16.42995177 5 15 C1.61584487 10.31746852 -0.34453062 5.81525922 0 0 Z " fill="#E15E64" transform="translate(362,84)"/>
<path d="M0 0 C6.27 0 12.54 0 19 0 C19 0.33 19 0.66 19 1 C18.15695312 1.04898438 17.31390625 1.09796875 16.4453125 1.1484375 C15.34960938 1.22320312 14.25390625 1.29796875 13.125 1.375 C11.48917969 1.47941406 11.48917969 1.47941406 9.8203125 1.5859375 C6.86953526 1.73253491 6.86953526 1.73253491 5 4 C1.9609375 4.1953125 1.9609375 4.1953125 -1.625 4.125 C-2.81351562 4.10695313 -4.00203125 4.08890625 -5.2265625 4.0703125 C-6.14179688 4.04710938 -7.05703125 4.02390625 -8 4 C-8 3.67 -8 3.34 -8 3 C-2.555 2.505 -2.555 2.505 3 2 C2.01 1.34 1.02 0.68 0 0 Z " fill="#F6B9AE" transform="translate(302,117)"/>
<path d="M0 0 C-0.33 1.32 -0.66 2.64 -1 4 C-1 3.34 -1 2.68 -1 2 C-1.66 2 -2.32 2 -3 2 C-2.67 3.216875 -2.34 4.43375 -2 5.6875 C-1.19677787 8.87210604 -0.79358027 11.6972843 -1 15 C-2.5 13.875 -2.5 13.875 -4 12 C-4.1875 8.8125 -4.1875 8.8125 -4 6 C-4.66 6 -5.32 6 -6 6 C-5.67 4.35 -5.34 2.7 -5 1 C-2 0 -2 0 0 0 Z " fill="#F0847E" transform="translate(368,78)"/>
<path d="M0 0 C0.99 0.33 1.98 0.66 3 1 C3.027193 2.58323688 3.04648306 4.16661062 3.0625 5.75 C3.07410156 6.63171875 3.08570313 7.5134375 3.09765625 8.421875 C3.00826198 10.7818838 2.66912821 12.74498524 2 15 C1.34 15 0.68 15 0 15 C0 10.05 0 5.1 0 0 Z " fill="#2D635E" transform="translate(363,211)"/>
<path d="M0 0 C1.65 0.33 3.3 0.66 5 1 C5 1.99 5 2.98 5 4 C0.375 6.125 0.375 6.125 -3 5 C-5.19038423 6.37168238 -5.19038423 6.37168238 -7 8 C-7.33 7.34 -7.66 6.68 -8 6 C-4.93882432 3.37613513 -4.26826873 3 0 3 C0 2.01 0 1.02 0 0 Z M-10 7 C-8 8 -8 8 -8 8 Z " fill="#FCD08E" transform="translate(401,114)"/>
<path d="M0 0 C0.7115625 -0.00773437 1.423125 -0.01546875 2.15625 -0.0234375 C5.92429832 -0.00937762 8.80489203 0.15321039 12 2.25 C12 3.24 12 4.23 12 5.25 C11.401875 4.940625 10.80375 4.63125 10.1875 4.3125 C3.92020076 1.26838323 -3.04974826 1.44993173 -9.6875 3.25 C-10.450625 3.58 -11.21375 3.91 -12 4.25 C-12 3.59 -12 2.93 -12 2.25 C-8.21376149 -0.23471902 -4.36674546 -0.04746462 0 0 Z " fill="#F1EABA" transform="translate(196,88.75)"/>
<path d="M0 0 C0.33 0 0.66 0 1 0 C1.66 6.6 2.32 13.2 3 20 C2.01 20 1.02 20 0 20 C-1.19799449 15.85340627 -0.8896192 12.00630953 -0.5625 7.75 C-0.51029297 7.00492187 -0.45808594 6.25984375 -0.40429688 5.4921875 C-0.2751783 3.66105139 -0.13834886 1.83046187 0 0 Z " fill="#D64643" transform="translate(357,100)"/>
<path d="M0 0 C0.99 0 1.98 0 3 0 C3.33 5.28 3.66 10.56 4 16 C0.48766061 10.73149092 -0.25153688 6.28842188 0 0 Z " fill="#416E6A" transform="translate(363,226)"/>
<path d="M0 0 C0.66 0 1.32 0 2 0 C2 0.66 2 1.32 2 2 C2.66 2.33 3.32 2.66 4 3 C3.34 3 2.68 3 2 3 C2 4.98 2 6.96 2 9 C4.64 9 7.28 9 10 9 C10.33 9.66 10.66 10.32 11 11 C7.37 10.67 3.74 10.34 0 10 C0 6.7 0 3.4 0 0 Z " fill="#D8F8EE" transform="translate(407,174)"/>
<path d="M0 0 C0.33 0 0.66 0 1 0 C1.06058594 1.30195312 1.12117188 2.60390625 1.18359375 3.9453125 C1.26804562 5.67188399 1.35269126 7.398446 1.4375 9.125 C1.47681641 9.9809375 1.51613281 10.836875 1.55664062 11.71875 C1.78156402 16.21721792 2.13540883 20.56806207 3 25 C2.01 25 1.02 25 0 25 C0 16.75 0 8.5 0 0 Z " fill="#F98E7B" transform="translate(403,88)"/>
<path d="M0 0 C1.65 0 3.3 0 5 0 C5 1.32 5 2.64 5 4 C5.66 4 6.32 4 7 4 C7 4.66 7 5.32 7 6 C8.32 6.33 9.64 6.66 11 7 C9.3125 7.6875 9.3125 7.6875 7 8 C3.65097825 6.56470496 2.29937245 5.61300074 0.6875 2.3125 C0.460625 1.549375 0.23375 0.78625 0 0 Z " fill="#3C8D87" transform="translate(396,263)"/>
<path d="M0 0 C0 4.35637821 -2.27897057 6.05610053 -5.109375 9.19140625 C-7.24427494 11.23367623 -9.12212703 12.30233382 -12 13 C-8.19524578 8.43969176 -4.25030379 4.14910608 0 0 Z " fill="#1D4E4E" transform="translate(300,235)"/>
<path d="M0 0 C4.78812534 0.47096315 6.92290854 1.57449415 10.8125 4.375 C11.75 6.625 11.75 6.625 11.8125 8.375 C11.1525 7.735625 10.4925 7.09625 9.8125 6.4375 C5.91672428 3.75915419 3.49742516 3.74681946 -1.1875 3.375 C-2.52834736 3.07330934 -3.8681062 2.75982319 -5.1875 2.375 C-3.1875 0.375 -3.1875 0.375 0 0 Z " fill="#66D0A2" transform="translate(407.1875,194.625)"/>
<path d="M0 0 C0.66 0.33 1.32 0.66 2 1 C-1.96 4.96 -5.92 8.92 -10 13 C-10.66 12.67 -11.32 12.34 -12 12 C-10.75479583 10.55834372 -9.50362077 9.12184348 -8.25 7.6875 C-7.55390625 6.88699219 -6.8578125 6.08648437 -6.140625 5.26171875 C-4.20854665 3.22034399 -2.30056874 1.60107149 0 0 Z " fill="#1C595B" transform="translate(280,194)"/>
<path d="M0 0 C0.99 0 1.98 0 3 0 C3 0.66 3 1.32 3 2 C3.598125 2.268125 4.19625 2.53625 4.8125 2.8125 C6.97224808 3.98493467 8.35790256 5.19369282 10 7 C9.67 7.66 9.34 8.32 9 9 C6.03 7.35 3.06 5.7 0 4 C0 2.68 0 1.36 0 0 Z " fill="#EACFBE" transform="translate(414,125)"/>
<path d="M0 0 C0.33 0 0.66 0 1 0 C1.08139142 2.39652528 1.14067009 4.79025436 1.1875 7.1875 C1.21263672 7.86103516 1.23777344 8.53457031 1.26367188 9.22851562 C1.32923478 13.70864748 0.66743649 16.39440999 -2 20 C-2.99 19.67 -3.98 19.34 -5 19 C-4.360625 17.906875 -3.72125 16.81375 -3.0625 15.6875 C-0.48668849 10.61779324 -0.2062446 5.60985308 0 0 Z " fill="#C2F0DE" transform="translate(436,206)"/>
<path d="M0 0 C0.66 0 1.32 0 2 0 C2 1.32 2 2.64 2 4 C3.65 4.33 5.3 4.66 7 5 C6.34 6.98 5.68 8.96 5 11 C2 7.25 2 7.25 2 5 C1.34 5 0.68 5 0 5 C-0.5625 3.0625 -0.5625 3.0625 -1 1 C-0.67 0.67 -0.34 0.34 0 0 Z " fill="#F9B1AA" transform="translate(408,164)"/>
<path d="M0 0 C0.66 0.66 1.32 1.32 2 2 C4.57061311 2.64767793 4.57061311 2.64767793 7 3 C7 3.66 7 4.32 7 5 C8.98 5 10.96 5 13 5 C9.88229079 6.84753138 7.61884589 7.54282688 4 7 C1.6875 5.1875 1.6875 5.1875 0 3 C0 2.01 0 1.02 0 0 Z " fill="#C92A3B" transform="translate(388,107)"/>
<path d="M0 0 C1.98 0 3.96 0 6 0 C6.33 0.99 6.66 1.98 7 3 C6.01 3.495 6.01 3.495 5 4 C5 5.65 5 7.3 5 9 C4.01 9 3.02 9 2 9 C1.95745644 7.00045254 1.95919217 4.99958364 2 3 C2.33 2.67 2.66 2.34 3 2 C2.01 1.34 1.02 0.68 0 0 Z " fill="#B55B57" transform="translate(366,74)"/>
<path d="M0 0 C2.23028553 0.49561901 4.20961061 1.09064243 6.3125 2 C9.51910877 3.19315675 12.61124193 3.60132258 16 4 C16 4.66 16 5.32 16 6 C10.35966205 5.50523351 6.05786581 4.58054378 1 2 C0.67 1.34 0.34 0.68 0 0 Z " fill="#1F7261" transform="translate(384,277)"/>
<path d="M0 0 C2.31 0 4.62 0 7 0 C6.67 1.98 6.34 3.96 6 6 C4.68 6 3.36 6 2 6 C2 4.68 2 3.36 2 2 C1.34 2 0.68 2 0 2 C0 1.34 0 0.68 0 0 Z " fill="#B17567" transform="translate(387,75)"/>
<path d="M0 0 C3.3 0.99 6.6 1.98 10 3 C6.00889681 4.9955516 4.30013434 5.19546065 0 5 C0 3.35 0 1.7 0 0 Z " fill="#826E66" transform="translate(385,279)"/>
<path d="M0 0 C0.33 0.99 0.66 1.98 1 3 C2.65 3 4.3 3 6 3 C4.68 3.33 3.36 3.66 2 4 C2 6.64 2 9.28 2 12 C1.01 11.67 0.02 11.34 -1 11 C-0.67 7.37 -0.34 3.74 0 0 Z " fill="#F57560" transform="translate(362,111)"/>
<path d="M0 0 C2.18840439 3.28260659 4.15885893 6.50818073 6 10 C5.67 10.66 5.34 11.32 5 12 C4.01 11.01 3.02 10.02 2 9 C1.34 9.99 0.68 10.98 0 12 C0 8.04 0 4.08 0 0 Z " fill="#C73840" transform="translate(361,86)"/>
<path d="M0 0 C2.62386487 3.06117568 3 3.73173127 3 8 C0.03 7.505 0.03 7.505 -3 7 C-3 6.34 -3 5.68 -3 5 C-3.66 4.67 -4.32 4.34 -5 4 C-3.68 4 -2.36 4 -1 4 C-0.67 2.68 -0.34 1.36 0 0 Z " fill="#FE9E89" transform="translate(396,65)"/>
<path d="M0 0 C1.98 0 3.96 0 6 0 C5.75 1.875 5.75 1.875 5 4 C2.9375 5.25 2.9375 5.25 1 6 C0.67 4.02 0.34 2.04 0 0 Z " fill="#21605B" transform="translate(381,186)"/>
<path d="M0 0 C0.66 0.33 1.32 0.66 2 1 C1.690625 1.598125 1.38125 2.19625 1.0625 2.8125 C-0.10209704 5.08956772 -0.10209704 5.08956772 -1 8 C0.65 8 2.3 8 4 8 C4 8.33 4 8.66 4 9 C1.36 9 -1.28 9 -4 9 C-4 8.01 -4 7.02 -4 6 C-3.34 6 -2.68 6 -2 6 C-2 4.35 -2 2.7 -2 1 C-1.34 0.67 -0.68 0.34 0 0 Z " fill="#F18D61" transform="translate(372,151)"/>
<path d="M0 0 C0.33 0 0.66 0 1 0 C1.05447047 1.41623216 1.09300508 2.83308191 1.125 4.25 C1.14820313 5.03890625 1.17140625 5.8278125 1.1953125 6.640625 C0.97954438 9.24710389 0.40935125 10.80767583 -1 13 C-3.125 13.75 -3.125 13.75 -5 14 C-4.54625 13.360625 -4.0925 12.72125 -3.625 12.0625 C-1.55458473 8.16056352 -0.79918586 4.31560367 0 0 Z " fill="#B62031" transform="translate(400,83)"/>
<path d="M0 0 C0.33 0 0.66 0 1 0 C1.25026288 6.38170347 1.25026288 6.38170347 -0.0625 9.625 C-1.1981185 12.50190019 -0.83620569 14.07328007 0 17 C-0.99 16.34 -1.98 15.68 -3 15 C-2.44854729 9.76119922 -1.57077907 5.02649303 0 0 Z " fill="#D1AEA6" transform="translate(418,284)"/>
<path d="M0 0 C4.95 0.33 9.9 0.66 15 1 C15 1.33 15 1.66 15 2 C13.75283203 2.05607422 13.75283203 2.05607422 12.48046875 2.11328125 C11.39378906 2.17902344 10.30710937 2.24476563 9.1875 2.3125 C7.56908203 2.39951172 7.56908203 2.39951172 5.91796875 2.48828125 C2.82502483 3.03068507 1.86977097 3.55289624 0 6 C0 4.02 0 2.04 0 0 Z " fill="#39AD8C" transform="translate(394,226)"/>
<path d="M0 0 C0.66 0 1.32 0 2 0 C1.125 4.75 1.125 4.75 0 7 C-1.65 7 -3.3 7 -5 7 C-4.21654285 5.82780457 -3.42297164 4.66236332 -2.625 3.5 C-2.18414062 2.8503125 -1.74328125 2.200625 -1.2890625 1.53125 C-0.65097656 0.77328125 -0.65097656 0.77328125 0 0 Z " fill="#F37478" transform="translate(376,110)"/>
<path d="M0 0 C0.66 0 1.32 0 2 0 C2 0.66 2 1.32 2 2 C0.7934375 2.61875 0.7934375 2.61875 -0.4375 3.25 C-3.32499092 4.80803511 -3.32499092 4.80803511 -3.8125 8.1875 C-3.9053125 9.5796875 -3.9053125 9.5796875 -4 11 C-4.66 10.67 -5.32 10.34 -6 10 C-6 7.69 -6 5.38 -6 3 C-5.195625 2.690625 -4.39125 2.38125 -3.5625 2.0625 C-1.10919595 1.23664655 -1.10919595 1.23664655 0 0 Z " fill="#DC535F" transform="translate(392,96)"/>
<path d="M0 0 C5.94 0.99 5.94 0.99 12 2 C12 2.66 12 3.32 12 4 C8.7 4 5.4 4 2 4 C1.34 2.68 0.68 1.36 0 0 Z " fill="#855E5E" transform="translate(385,294)"/>
<path d="M0 0 C2.475 0.99 2.475 0.99 5 2 C4.67 4.31 4.34 6.62 4 9 C3.01 9.33 2.02 9.66 1 10 C1.03255208 7.98177083 1.06510417 5.96354167 1.09765625 3.9453125 C1.12649242 1.91814596 1.12649242 1.91814596 0 0 Z " fill="#DD5864" transform="translate(374,101)"/>
<path d="M0 0 C4.62 0 9.24 0 14 0 C14 0.33 14 0.66 14 1 C11.03 1 8.06 1 5 1 C4.67 2.32 4.34 3.64 4 5 C2.68 3.35 1.36 1.7 0 0 Z " fill="#44AD9A" transform="translate(394,239)"/>
<path d="M0 0 C1.96411219 3.78392226 3.37946204 6.99427209 2.5625 11.3125 C2.376875 11.869375 2.19125 12.42625 2 13 C1.01 12.67 0.02 12.34 -1 12 C-0.34 11.67 0.32 11.34 1 11 C0.67 10.34 0.34 9.68 0 9 C-0.06950541 7.45976004 -0.08452357 5.91665012 -0.0625 4.375 C-0.05347656 3.55773437 -0.04445313 2.74046875 -0.03515625 1.8984375 C-0.02355469 1.27195312 -0.01195312 0.64546875 0 0 Z " fill="#E35149" transform="translate(359,109)"/>
<path d="M0 0 C0 4.902398 -3.07198577 8.23541027 -6 12 C-6.33 11.01 -6.66 10.02 -7 9 C-5.02154932 5.60837026 -2.9244745 2.63202705 0 0 Z " fill="#E67776" transform="translate(364,59)"/>
<path d="M0 0 C2.64 0 5.28 0 8 0 C8 0.99 8 1.98 8 3 C5.69 3 3.38 3 1 3 C0.67 2.01 0.34 1.02 0 0 Z " fill="#A86C6A" transform="translate(387,286)"/>
<path d="M0 0 C0.66 0.33 1.32 0.66 2 1 C1.01 3.97 0.02 6.94 -1 10 C-1.99 9.34 -2.98 8.68 -4 8 C-2.68 5.36 -1.36 2.72 0 0 Z " fill="#E1B2A8" transform="translate(431,277)"/>
<path d="M0 0 C1.58137059 4.74411176 -1.08555589 8.12298314 -3.1875 12.4375 C-3.455625 12.953125 -3.72375 13.46875 -4 14 C-4.66 14 -5.32 14 -6 14 C-4.16508812 9.25981099 -2.08058541 4.63586749 0 0 Z " fill="#EFE9E2" transform="translate(433,278)"/>
<path d="M0 0 C0.33 0.66 0.66 1.32 1 2 C0.67 2.99 0.34 3.98 0 5 C3.3 5 6.6 5 10 5 C10 5.33 10 5.66 10 6 C5.38 6 0.76 6 -4 6 C-2.68 4.02 -1.36 2.04 0 0 Z " fill="#B9F1DF" transform="translate(193,239)"/>
<path d="M0 0 C0.99 0 1.98 0 3 0 C3 0.99 3 1.98 3 3 C3.66 3.33 4.32 3.66 5 4 C3.625 5.5 3.625 5.5 2 7 C1.34 7 0.68 7 0 7 C0 4.69 0 2.38 0 0 Z " fill="#63C4B4" transform="translate(377,190)"/>
<path d="M0 0 C3.39417765 3.12621626 5.6062718 5.56541027 7 10 C6.34 10 5.68 10 5 10 C0 4.76190476 0 4.76190476 0 0 Z " fill="#F8E5D8" transform="translate(430,135)"/>
<path d="M0 0 C1.65 0 3.3 0 5 0 C5 1.65 5 3.3 5 5 C3.68 5 2.36 5 1 5 C0.67 3.35 0.34 1.7 0 0 Z " fill="#E8EBAE" transform="translate(411,120)"/>
<path d="M0 0 C0.66 0.33 1.32 0.66 2 1 C-3.14285714 7.57142857 -3.14285714 7.57142857 -7 9 C-5.64978174 4.58110387 -3.73884332 2.65654657 0 0 Z " fill="#F5D980" transform="translate(185,92)"/>
<path d="M0 0 C0.66 2.97 1.32 5.94 2 9 C1.34 9 0.68 9 0 9 C-1.4606285 6.35261084 -2 5.10551666 -2 2 C-2.99 1.67 -3.98 1.34 -5 1 C-3 0 -3 0 0 0 Z " fill="#F4D5CA" transform="translate(398,284)"/>
<path d="M0 0 C2 1 2 1 2.75 2.9375 C2.8325 3.618125 2.915 4.29875 3 5 C2.34 5.66 1.68 6.32 1 7 C-0.32 7 -1.64 7 -3 7 C-1.125 1.125 -1.125 1.125 0 0 Z " fill="#FB6662" transform="translate(363,62)"/>
<path d="M0 0 C1.485 0.99 1.485 0.99 3 2 C3.29296875 4.3828125 3.29296875 4.3828125 3.1875 7.125 C3.16042969 8.03507812 3.13335937 8.94515625 3.10546875 9.8828125 C3.07066406 10.58148438 3.03585937 11.28015625 3 12 C0.7655402 7.96707255 0.45503257 4.55032566 0 0 Z " fill="#EBEEE5" transform="translate(398,284)"/>
<path d="M0 0 C-0.33 2.31 -0.66 4.62 -1 7 C-1.66 7 -2.32 7 -3 7 C-3 5.35 -3 3.7 -3 2 C-4.65 2 -6.3 2 -8 2 C-8 1.67 -8 1.34 -8 1 C-5.23735711 0.40267181 -2.83967231 0 0 0 Z " fill="#A59D96" transform="translate(419,282)"/>
<path d="M0 0 C0 0.33 0 0.66 0 1 C-4.53701494 2.45184478 -8.18061476 3.23509196 -13 3 C-9.21656826 -0.94792877 -5.07874402 -0.29300446 0 0 Z " fill="#C19D97" transform="translate(400,283)"/>
<path d="M0 0 C0.33 0.99 0.66 1.98 1 3 C-1.31 5.31 -3.62 7.62 -6 10 C-6.66 9.67 -7.32 9.34 -8 9 C-5.36 6.03 -2.72 3.06 0 0 Z " fill="#E9E9DF" transform="translate(333,242)"/>
<path d="M0 0 C1.33333333 1.33333333 2.66666667 2.66666667 4 4 C4.5775 4.53625 5.155 5.0725 5.75 5.625 C7 7 7 7 7 9 C4.28902773 8.62607279 3.17999533 8.18642373 1.25 6.1875 C0 4 0 4 0 0 Z " fill="#237B6F" transform="translate(390,260)"/>
<path d="M0 0 C0 0.33 0 0.66 0 1 C-1.27875 1.12375 -2.5575 1.2475 -3.875 1.375 C-7.34790936 1.69042399 -7.34790936 1.69042399 -10 4 C-10 2.35 -10 0.7 -10 -1 C-6.06329512 -2.31223496 -3.87511856 -1.24296256 0 0 Z " fill="#4FA690" transform="translate(383,257)"/>
<path d="M0 0 C3.96 1.98 3.96 1.98 8 4 C8 4.33 8 4.66 8 5 C5.36 5 2.72 5 0 5 C0 3.35 0 1.7 0 0 Z " fill="#FBAC70" transform="translate(376,133)"/>
<path d="M0 0 C-0.33 0.99 -0.66 1.98 -1 3 C-1.721875 2.690625 -2.44375 2.38125 -3.1875 2.0625 C-5.80307309 1.07439461 -8.25118982 0.4712246 -11 0 C-11 -0.33 -11 -0.66 -11 -1 C-6.65609517 -2.08597621 -3.99390508 -1.99695254 0 0 Z " fill="#C98267" transform="translate(362,131)"/>
<path d="M0 0 C1.98 0 3.96 0 6 0 C6.33 0.66 6.66 1.32 7 2 C5.35 2.33 3.7 2.66 2 3 C1.67 4.65 1.34 6.3 1 8 C0.67 8 0.34 8 0 8 C0 5.36 0 2.72 0 0 Z " fill="#FE9A71" transform="translate(364,115)"/>
<path d="M0 0 C1 2 1 2 0.875 4 C0 6 0 6 -2.5625 7.25 C-3.366875 7.4975 -4.17125 7.745 -5 8 C-3.8141763 4.62496331 -2.72426311 2.35277269 0 0 Z " fill="#ECA69D" transform="translate(425,147)"/>
<path d="M0 0 C2.04119788 1.61594832 4.04072937 3.2856382 6 5 C6 5.66 6 6.32 6 7 C3.5625 6.3125 3.5625 6.3125 1 5 C0.1875 2.375 0.1875 2.375 0 0 Z " fill="#EAAC9F" transform="translate(413,127)"/>
<path d="M0 0 C2.64 0 5.28 0 8 0 C8.33 1.32 8.66 2.64 9 4 C8.1646875 3.505 8.1646875 3.505 7.3125 3 C4.69715478 1.8690399 2.8193354 1.84337026 0 2 C0 1.34 0 0.68 0 0 Z " fill="#F0AC7A" transform="translate(404,126)"/>
<path d="M0 0 C1.98 0.99 1.98 0.99 4 2 C4 2.99 4 3.98 4 5 C2.68 5 1.36 5 0 5 C0 3.35 0 1.7 0 0 Z " fill="#FED8C8" transform="translate(380,77)"/>
</svg>
